<svg width="25" height="25" viewBox="0 0 25 25" fill="none" xmlns="http://www.w3.org/2000/svg">
<g opacity="0.25">
<path d="M24.7 12.35C24.7 14.7926 23.9757 17.1803 22.6186 19.2113C21.2616 21.2422 19.3328 22.8252 17.0761 23.7599C14.8195 24.6946 12.3363 24.9392 9.94064 24.4627C7.54497 23.9862 5.34441 22.8099 3.61724 21.0828C1.89006 19.3556 0.713835 17.155 0.237307 14.7594C-0.23922 12.3637 0.00535069 9.88052 0.940093 7.62386C1.87483 5.36719 3.45776 3.43838 5.48871 2.08135C7.51966 0.724314 9.9074 0 12.35 0C15.6254 0 18.7667 1.30116 21.0828 3.61723C23.3988 5.9333 24.7 9.07457 24.7 12.35Z" fill="#BFBFFF"/>
<path d="M12.3499 15.0977C10.9568 15.0983 9.58655 15.452 8.36717 16.1256C7.14779 16.7993 6.11903 17.771 5.37695 18.95C6.27299 19.9 7.3537 20.6569 8.55277 21.1742C9.75184 21.6916 11.044 21.9584 12.3499 21.9584C13.6558 21.9584 14.9479 21.6916 16.147 21.1742C17.346 20.6569 18.4268 19.9 19.3228 18.95C18.5807 17.771 17.552 16.7993 16.3326 16.1256C15.1132 15.452 13.743 15.0983 12.3499 15.0977Z" fill="#4040FF"/>
<path d="M12.3507 13.7216C11.5344 13.7216 10.7365 13.4788 10.0584 13.0241C9.3804 12.5695 8.85284 11.9236 8.54281 11.1684C8.23277 10.4132 8.15427 9.58286 8.31728 8.78295C8.48028 7.98304 8.87743 7.24965 9.45826 6.676C10.0391 6.10235 10.7773 5.71434 11.5792 5.56128C12.3811 5.40823 13.2104 5.49704 13.9616 5.81643C14.7129 6.13582 15.3523 6.67136 15.7985 7.35499C16.2446 8.03863 16.4775 8.83948 16.4674 9.65577C16.4514 10.7379 16.011 11.7705 15.2409 12.531C14.4709 13.2915 13.433 13.7191 12.3507 13.7216Z" fill="#4040FF"/>
</g>
</svg>
