<svg width="25" height="25" viewBox="0 0 25 25" fill="none" xmlns="http://www.w3.org/2000/svg">
<path d="M25.0008 12.35C25.0008 14.7926 24.2765 17.1803 22.9194 19.2113C21.5624 21.2422 19.6336 22.8252 17.3769 23.7599C15.1203 24.6946 12.6371 24.9392 10.2414 24.4627C7.84575 23.9862 5.64519 22.8099 3.91802 21.0828C2.19084 19.3556 1.01462 17.155 0.538089 14.7594C0.0615613 12.3637 0.306132 9.88052 1.24087 7.62386C2.17562 5.36719 3.75855 3.43838 5.78949 2.08135C7.82044 0.724314 10.2082 0 12.6508 0C15.9262 0 19.0675 1.30116 21.3835 3.61723C23.6996 5.9333 25.0008 9.07457 25.0008 12.35Z" fill="#BFBFFF"/>
<path d="M12.6507 15.0977C11.2576 15.0983 9.88733 15.452 8.66795 16.1256C7.44857 16.7993 6.41981 17.771 5.67773 18.95C6.57377 19.9 7.65448 20.6569 8.85355 21.1742C10.0526 21.6916 11.3447 21.9584 12.6507 21.9584C13.9566 21.9584 15.2487 21.6916 16.4478 21.1742C17.6468 20.6569 18.7275 19.9 19.6236 18.95C18.8815 17.771 17.8527 16.7993 16.6334 16.1256C15.414 15.452 14.0438 15.0983 12.6507 15.0977Z" fill="#4040FF"/>
<path d="M12.6515 13.7216C11.8352 13.7216 11.0373 13.4788 10.3592 13.0241C9.68118 12.5695 9.15362 11.9236 8.84359 11.1684C8.53356 10.4132 8.45505 9.58286 8.61806 8.78295C8.78106 7.98304 9.17822 7.24965 9.75904 6.676C10.3399 6.10235 11.0781 5.71434 11.88 5.56128C12.6819 5.40823 13.5111 5.49704 14.2624 5.81643C15.0137 6.13582 15.6531 6.67136 16.0992 7.35499C16.5454 8.03863 16.7783 8.83948 16.7682 9.65577C16.7522 10.7379 16.3117 11.7705 15.5417 12.531C14.7717 13.2915 13.7338 13.7191 12.6515 13.7216Z" fill="#4040FF"/>
</svg>
