<svg width="33" height="39" viewBox="0 0 33 39" fill="none" xmlns="http://www.w3.org/2000/svg">
<path d="M13.9021 9.69995C15.0568 7.69995 17.9435 7.69995 19.0982 9.69995L27.7873 24.75C28.942 26.75 27.4987 29.25 25.1893 29.25H7.811C5.5016 29.25 4.05823 26.75 5.21293 24.75L13.9021 9.69995Z" fill="#D9001B"/>
<path d="M18.933 14H15.053L15.393 23.9H18.573L18.933 14ZM16.993 24.94C15.953 24.94 15.113 25.68 15.113 26.58C15.113 27.5 15.953 28.22 16.993 28.22C18.013 28.22 18.853 27.5 18.853 26.58C18.853 25.68 18.013 24.94 16.993 24.94Z" fill="white"/>
</svg>
