<svg width="69" height="47" viewBox="0 0 69 47" fill="none" xmlns="http://www.w3.org/2000/svg">
<path d="M26.7221 35.3161V44.9844C26.7241 45.2495 26.6734 45.5123 26.5729 45.7575C26.4723 46.0028 26.3241 46.2256 26.1366 46.4131C25.9492 46.6005 25.7264 46.7488 25.4811 46.8493C25.2358 46.9499 24.973 47.0006 24.7079 46.9986H16.1139C15.8488 47.0006 15.586 46.9499 15.3407 46.8493C15.0955 46.7488 14.8726 46.6005 14.6852 46.4131C14.4978 46.2256 14.3495 46.0028 14.2489 45.7575C14.1484 45.5123 14.0977 45.2495 14.0997 44.9844V35.3161C14.0997 34.2477 14.5241 33.223 15.2796 32.4676C16.0351 31.7121 17.0597 31.2876 18.1281 31.2876H22.6937C23.7621 31.2876 24.7868 31.7121 25.5422 32.4676C26.2977 33.223 26.7221 34.2477 26.7221 35.3161Z" fill="#8080FF"/>
<path d="M36.3897 44.9844C36.3919 45.2546 36.3393 45.5224 36.2351 45.7717C36.1309 46.021 35.9773 46.2466 35.7834 46.4349C35.5896 46.6232 35.3596 46.7702 35.1073 46.8671C34.8551 46.9639 34.5858 47.0087 34.3158 46.9986H6.44489C5.91068 46.9986 5.39836 46.7864 5.02062 46.4087C4.64288 46.0309 4.43066 45.5186 4.43066 44.9844C4.43066 44.4502 4.64288 43.9378 5.02062 43.5601C5.39836 43.1824 5.91068 42.9702 6.44489 42.9702H34.3158C34.5809 42.9682 34.8437 43.0189 35.089 43.1194C35.3342 43.22 35.5571 43.3682 35.7445 43.5557C35.9319 43.7431 36.0802 43.9659 36.1808 44.2112C36.2813 44.4565 36.332 44.7193 36.33 44.9844H36.3897Z" fill="#0000FF"/>
<path d="M39.3455 5.37126V29.9448C39.3455 31.0132 38.9211 32.0379 38.1656 32.7934C37.4101 33.5488 36.3854 33.9733 35.317 33.9733H5.3722C4.30379 33.9733 3.27914 33.5488 2.52366 32.7934C1.76818 32.0379 1.34375 31.0132 1.34375 29.9448V5.37126C1.34375 4.30285 1.76818 3.2782 2.52366 2.52272C3.27914 1.76723 4.30379 1.34281 5.3722 1.34281H35.317C35.8461 1.34281 36.3699 1.44701 36.8587 1.64946C37.3474 1.8519 37.7915 2.14864 38.1656 2.52272C38.5397 2.89679 38.8364 3.34089 39.0388 3.82964C39.2413 4.31839 39.3455 4.84224 39.3455 5.37126Z" fill="#BFBFFF"/>
<path d="M36.6589 0H4.02845C2.96004 0 1.93539 0.424425 1.17991 1.17991C0.424425 1.93539 0 2.96004 0 4.02845V31.3324C0 32.4008 0.424425 33.4255 1.17991 34.181C1.93539 34.9364 2.96004 35.3609 4.02845 35.3609H36.6589C37.1879 35.3609 37.7118 35.2567 38.2005 35.0542C38.6893 34.8518 39.1334 34.555 39.5075 34.181C39.8815 33.8069 40.1783 33.3628 40.3807 32.874C40.5832 32.3853 40.6874 31.8614 40.6874 31.3324V4.02845C40.6874 2.96004 40.2629 1.93539 39.5075 1.17991C38.752 0.424425 37.7273 0 36.6589 0ZM36.6589 31.3324H4.02845V4.02845H36.6589C36.6589 35.0625 36.6589 31.2877 36.6589 31.2877V31.3324Z" fill="#0000FF"/>
<path d="M68.7521 4.02845V42.9702C68.7521 43.4992 68.6479 44.023 68.4454 44.5118C68.243 45.0005 67.9462 45.4446 67.5722 45.8187C67.1981 46.1928 66.754 46.4895 66.2652 46.692C65.7765 46.8944 65.2526 46.9986 64.7236 46.9986H49.2365C48.7074 46.9986 48.1836 46.8944 47.6948 46.692C47.2061 46.4895 46.762 46.1928 46.3879 45.8187C46.0138 45.4446 45.7171 45.0005 45.5147 44.5118C45.3122 44.023 45.208 43.4992 45.208 42.9702V4.02845C46.2764 4.02845 47.3011 3.60403 48.0566 2.84855C48.812 2.09306 49.2365 1.06841 49.2365 0H64.7236C64.7236 0.529024 64.8278 1.05287 65.0303 1.54162C65.2327 2.03038 65.5294 2.47447 65.9035 2.84855C66.2776 3.22262 66.7217 3.51936 67.2104 3.7218C67.6992 3.92425 68.2231 4.02845 68.7521 4.02845Z" fill="#0000FF"/>
<path d="M68.7522 4.02845V12.6225H45.2529V4.02845C45.2529 2.96775 45.6711 1.94982 46.417 1.19562C47.1628 0.441408 48.176 0.0117861 49.2366 5.64467e-07H64.5895C65.6706 -0.00056209 66.7096 0.419531 67.4865 1.17138C68.2634 1.92324 68.7174 2.94787 68.7522 4.02845Z" fill="#8080FF"/>
<path d="M58.9494 36.3904C58.9377 36.786 58.8097 37.1694 58.5814 37.4927C58.353 37.816 58.0345 38.0648 57.6656 38.2082C57.2966 38.3515 56.8937 38.383 56.507 38.2987C56.1202 38.2143 55.7669 38.0179 55.4912 37.734C55.2154 37.4501 55.0294 37.0912 54.9564 36.7022C54.8834 36.3132 54.9267 35.9113 55.0807 35.5467C55.2348 35.1821 55.4928 34.871 55.8226 34.6522C56.1524 34.4334 56.5394 34.3166 56.9352 34.3165C57.2003 34.3145 57.4631 34.3652 57.7084 34.4657C57.9536 34.5663 58.1765 34.7146 58.3639 34.902C58.5514 35.0894 58.6996 35.3123 58.8002 35.5575C58.9007 35.8028 58.9514 36.0656 58.9494 36.3307V36.3904Z" fill="#BFBFFF"/>
<path d="M58.9493 27.7963C58.9493 28.1947 58.8312 28.5841 58.6099 28.9154C58.3886 29.2466 58.074 29.5048 57.7059 29.6572C57.3379 29.8097 56.9329 29.8496 56.5422 29.7719C56.1514 29.6941 55.7925 29.5023 55.5109 29.2206C55.2292 28.9389 55.0373 28.58 54.9596 28.1893C54.8819 27.7986 54.9218 27.3936 55.0742 27.0255C55.2267 26.6575 55.4848 26.3429 55.8161 26.1216C56.1473 25.9002 56.5367 25.7821 56.9351 25.7821C57.2002 25.7801 57.463 25.8309 57.7083 25.9314C57.9536 26.0319 58.1764 26.1802 58.3638 26.3676C58.5513 26.5551 58.6995 26.7779 58.8001 27.0232C58.9006 27.2685 58.9513 27.5313 58.9493 27.7963Z" fill="#BFBFFF"/>
</svg>
