<svg width="54" height="53" viewBox="0 0 54 53" fill="none" xmlns="http://www.w3.org/2000/svg">
<path d="M52.3869 26.1092C52.3587 25.8237 52.4068 25.5358 52.5263 25.275C52.6457 25.0141 52.8323 24.7897 53.0669 24.6245C52.9748 23.0701 52.7473 21.5267 52.3869 20.0119C51.7288 19.4386 51.2062 18.7264 50.8569 17.9265C50.7533 17.6291 50.723 17.311 50.7683 16.9993C50.8137 16.6876 50.9335 16.3915 51.1176 16.1359C48.4744 9.76783 43.4238 4.70093 37.0643 2.03721C37.0643 2.03721 36.7016 2.67187 35.2623 2.24121C34.4221 2.00323 33.6896 1.48289 33.1883 0.767875C31.6741 0.395631 30.1309 0.152977 28.5756 0.0425415C28.4146 0.308593 28.1805 0.522716 27.9012 0.659365C27.6218 0.796014 27.3091 0.849419 27.0003 0.813208C26.7061 0.831901 26.4124 0.770021 26.1508 0.634226C25.8892 0.498431 25.6696 0.293864 25.5156 0.0425415C23.9605 0.12825 22.4166 0.355863 20.9029 0.722541C20.4085 1.44439 19.6733 1.96668 18.8289 2.19587C17.3896 2.62654 17.0269 1.99188 17.0269 1.99188C10.6473 4.66473 5.58062 9.74773 2.92826 16.1359C3.11781 16.3887 3.24184 16.6846 3.2893 16.997C3.33676 17.3095 3.30617 17.6288 3.20026 17.9265C2.84743 18.7243 2.32537 19.4359 1.67026 20.0119C1.28763 21.5244 1.0411 23.0681 0.933594 24.6245C1.18492 24.7785 1.38948 24.9982 1.52528 25.2598C1.66107 25.5214 1.72295 25.8151 1.70426 26.1092C1.74047 26.4181 1.68707 26.7308 1.55042 27.0101C1.41377 27.2894 1.19964 27.5236 0.933594 27.6845C1.01892 29.2396 1.24654 30.7836 1.61359 32.2972C2.28923 32.8673 2.83096 33.5793 3.20026 34.3825C3.30384 34.68 3.33423 34.998 3.28886 35.3097C3.24349 35.6214 3.12368 35.9176 2.93959 36.1732C5.58489 42.549 10.6511 47.6152 17.0269 50.2605C17.0269 50.2605 17.4463 49.6485 18.8289 50.0565C19.6648 50.3035 20.3945 50.8219 20.9029 51.5299C22.416 51.9016 23.9601 52.133 25.5156 52.2212C25.6753 51.9783 25.8973 51.7827 26.1585 51.6551C26.4198 51.5275 26.7105 51.4725 27.0003 51.4959C27.2975 51.4627 27.5981 51.5129 27.8684 51.6411C28.1386 51.7692 28.3678 51.9701 28.5303 52.2212C29.88 52.1476 31.2217 51.9657 32.5423 51.6772L33.1543 51.5299C33.6562 50.8155 34.3885 50.2954 35.2283 50.0565C36.6676 49.6259 37.0303 50.2719 37.0303 50.2719C40.1967 48.9657 43.0747 47.0482 45.4997 44.629C47.9247 42.2099 49.8491 39.3365 51.1629 36.1732C50.9753 35.9193 50.8533 35.623 50.8078 35.3106C50.7623 34.9982 50.7948 34.6794 50.9023 34.3825C51.2551 33.5848 51.7771 32.8732 52.4323 32.2972C52.7947 30.7828 53.0223 29.2392 53.1123 27.6845C52.8546 27.5176 52.6496 27.281 52.5211 27.0021C52.3927 26.7232 52.3462 26.4135 52.3869 26.1092Z" fill="#0000FF"/>
<path d="M53.0665 27.6845C53.1231 26.6653 53.1231 25.6437 53.0665 24.6245H41.6651C41.6143 21.7347 41.3872 18.8507 40.9851 15.9885C43.8554 16.5903 46.6548 17.4905 49.3378 18.6745L52.4318 20.0119C52.1117 18.6883 51.6873 17.3923 51.1625 16.1359C47.7451 14.5582 44.1431 13.4159 40.4411 12.7359C39.8029 9.22476 38.7529 5.80114 37.3131 2.53585L37.0638 1.96918C35.8066 1.44631 34.5107 1.02192 33.1878 0.699849L34.5025 3.75985C35.7183 6.46703 36.6232 9.30338 37.1998 12.2145C34.3415 11.812 31.4612 11.5849 28.5751 11.5345V0.0425153C27.5559 -0.0141718 26.5343 -0.0141718 25.5151 0.0425153V11.4892C22.6291 11.5395 19.7488 11.7666 16.8905 12.1692C17.4886 9.2994 18.3851 6.49998 19.5651 3.81652L20.9025 0.722515C19.5783 1.05932 18.2823 1.49887 17.0265 2.03718L16.7771 2.60385C15.3373 5.86914 14.2874 9.29276 13.6491 12.8039C10.138 13.4421 6.71441 14.492 3.44912 15.9319L2.88246 16.1812C2.35473 17.4365 1.93021 18.7328 1.61312 20.0572L4.70712 18.7199C7.38867 17.5347 10.1886 16.6382 13.0598 16.0452C12.6572 18.9035 12.4301 21.7838 12.3798 24.6699H0.933123C0.876459 25.6891 0.876459 26.7106 0.933123 27.7299H12.3798C12.4301 30.6159 12.6572 33.4962 13.0598 36.3545C10.1882 35.758 7.38819 34.8576 4.70712 33.6685C4.41246 33.5552 5.84046 34.1445 1.61312 32.3425C1.93888 33.6644 2.36318 34.96 2.88246 36.2185L3.44912 36.4679C6.71441 37.9077 10.138 38.9576 13.6491 39.5959C14.2891 43.1065 15.339 46.5299 16.7771 49.7959L17.0265 50.3625C18.282 50.8869 19.5783 51.3076 20.9025 51.6205C19.0891 47.4272 19.6898 48.8439 19.5651 48.5379C18.3851 45.8544 17.4886 43.055 16.8905 40.1852C19.7488 40.5877 22.6291 40.8148 25.5151 40.8652V52.1759C26.5343 52.2325 27.5559 52.2325 28.5751 52.1759V40.7745C31.4612 40.7242 34.3415 40.4971 37.1998 40.0945C36.6016 42.9643 35.7052 45.7637 34.5251 48.4472L33.1878 51.5412C34.5107 51.2191 35.8066 50.7947 37.0638 50.2719L37.3131 49.7052C38.7513 46.4393 39.8011 43.0159 40.4411 39.5052C43.9522 38.8669 47.3758 37.817 50.6411 36.3772L51.2078 36.1279C51.7307 34.8707 52.1551 33.5748 52.4771 32.2519L49.4171 33.5665C46.7165 34.7897 43.8885 35.7095 40.9851 36.3092C41.3877 33.4509 41.6148 30.5706 41.6651 27.6845H53.0665ZM25.5151 37.7145C22.4249 37.6641 19.3421 37.3952 16.2898 36.9099C15.8045 33.8575 15.5356 30.7748 15.4851 27.6845H25.5151V37.7145ZM25.5151 24.6245H15.4851C15.5356 21.5343 15.8045 18.4515 16.2898 15.3992C19.3421 14.9139 22.4249 14.645 25.5151 14.5945V24.6245ZM37.8005 36.9099C34.7482 37.3952 31.6654 37.6641 28.5751 37.7145V27.6845H38.6051C38.5547 30.7748 38.2858 33.8575 37.8005 36.9099ZM28.5751 24.6245V14.5945C31.6654 14.645 34.7482 14.9139 37.8005 15.3992C38.2858 18.4515 38.5547 21.5343 38.6051 24.6245H28.5751Z" fill="#BFBFFF"/>
</svg>
