<svg width="30" height="29" viewBox="0 0 30 29" fill="none" xmlns="http://www.w3.org/2000/svg">
<path d="M13.0493 0.898863C13.8496 -0.0818252 15.3481 -0.0818264 16.1484 0.898861L18.8529 4.21311C19.2278 4.67247 19.7871 4.94183 20.38 4.9485L24.6574 4.9966C25.9231 5.01084 26.8575 6.18243 26.5897 7.41956L25.6848 11.6005C25.5593 12.1799 25.6975 12.7852 26.0619 13.2529L28.6912 16.6271C29.4693 17.6255 29.1358 19.0865 28.0016 19.6485L24.1687 21.5477C23.6374 21.811 23.2503 22.2964 23.1119 22.8729L22.1132 27.0324C21.8177 28.2632 20.4675 28.9133 19.321 28.377L15.4463 26.5644C14.9093 26.3132 14.2884 26.3132 13.7514 26.5644L9.87668 28.377C8.73015 28.9133 7.38002 28.2632 7.0845 27.0324L6.08578 22.8729C5.94736 22.2964 5.56029 21.811 5.02903 21.5477L1.19606 19.6485C0.0618811 19.0865 -0.271574 17.6255 0.506447 16.6271L3.13578 13.2529C3.50021 12.7852 3.63836 12.1799 3.51293 11.6005L2.60801 7.41957C2.34024 6.18243 3.27456 5.01084 4.54026 4.9966L8.8177 4.9485C9.41056 4.94183 9.9699 4.67247 10.3448 4.21311L13.0493 0.898863Z" fill="#70B603"/>
</svg>
