<svg width="30" height="29" viewBox="0 0 30 29" fill="none" xmlns="http://www.w3.org/2000/svg">
<path d="M13.4505 0.898863C14.2507 -0.0818252 15.7493 -0.0818264 16.5495 0.898861L19.2541 4.21311C19.6289 4.67247 20.1883 4.94183 20.7811 4.9485L25.0586 4.9966C26.3243 5.01084 27.2586 6.18243 26.9908 7.41956L26.0859 11.6005C25.9605 12.1799 26.0986 12.7852 26.4631 13.2529L29.0924 16.6271C29.8704 17.6255 29.537 19.0865 28.4028 19.6485L24.5698 21.5477C24.0386 21.811 23.6515 22.2964 23.5131 22.8729L22.5143 27.0324C22.2188 28.2632 20.8687 28.9133 19.7222 28.377L15.8475 26.5644C15.3104 26.3132 14.6896 26.3132 14.1526 26.5644L10.2778 28.377C9.13131 28.9133 7.78118 28.2632 7.48566 27.0324L6.48694 22.8729C6.34852 22.2964 5.96144 21.811 5.43019 21.5477L1.59721 19.6485C0.463035 19.0865 0.129579 17.6255 0.9076 16.6271L3.53694 13.2529C3.90136 12.7852 4.03951 12.1799 3.91409 11.6005L3.00916 7.41957C2.74139 6.18243 3.67571 5.01084 4.94141 4.9966L9.21885 4.9485C9.81171 4.94183 10.3711 4.67247 10.7459 4.21311L13.4505 0.898863Z" fill="white"/>
</svg>
