<svg width="101" height="101" viewBox="0 0 101 101" fill="none" xmlns="http://www.w3.org/2000/svg">
<circle cx="50.5" cy="50.5" r="50.5" fill="white"/>
<circle cx="50.5" cy="50.5" r="49.5" stroke="#0B24FB" stroke-opacity="0.5" stroke-width="2"/>
<path d="M17.5767 38.6696L17.2561 38.5195C17.1807 38.6761 17.1053 38.8328 17.0361 38.9894L17.3316 39.146C17.4133 38.9828 17.495 38.8262 17.5767 38.6696Z" fill="#49C1ED"/>
<path d="M17.4388 34.1297L16.9422 33.7969C16.8667 33.9143 16.7913 34.0253 16.7222 34.1427L17.1873 34.469C17.2691 34.3515 17.3571 34.2406 17.4388 34.1297Z" fill="#49C1ED"/>
<path d="M17.3446 36.4861L17.0491 36.3164C16.9737 36.4469 16.9045 36.5774 16.8291 36.7145L17.0994 36.8841C17.1811 36.7406 17.2628 36.6101 17.3446 36.4861Z" fill="#49C1ED"/>
<path d="M18.4695 37.1255L18.086 36.9102C18.0043 37.0537 17.9289 37.1908 17.8472 37.3343L18.2055 37.5562C18.2998 37.4126 18.3815 37.2691 18.4695 37.1255Z" fill="#49C1ED"/>
<path d="M17.9042 40.8752L17.7027 40.7969C17.646 40.947 17.5894 41.097 17.5327 41.2537L17.7027 41.332C17.772 41.1819 17.8349 41.0253 17.9042 40.8752Z" fill="#49C1ED"/>
<path d="M17.8657 34.9396L18.2177 35.1876C18.3057 35.0702 18.3938 34.9462 18.4818 34.8287L18.1046 34.5742C18.0229 34.6982 17.9412 34.8222 17.8657 34.9396Z" fill="#49C1ED"/>
<path d="M15.8482 35.625C15.779 35.7425 15.7162 35.8664 15.6533 35.9904L16.0556 36.2319C16.1311 36.1079 16.2002 35.9904 16.2756 35.8664L15.8482 35.625Z" fill="#49C1ED"/>
<path d="M18.7267 32.4828L18.1735 32.0391C18.0603 32.1891 17.9535 32.3327 17.8403 32.4828L18.3684 32.9069C18.4249 32.8352 18.4815 32.7569 18.5444 32.6851C18.6009 32.6198 18.6638 32.5546 18.7267 32.4828Z" fill="#49C1ED"/>
<path d="M16.735 40.4182L16.4898 40.3203C16.4395 40.4508 16.3892 40.5813 16.3452 40.7118L16.5652 40.8097C16.6155 40.6792 16.6721 40.5487 16.735 40.4182Z" fill="#49C1ED"/>
<path d="M21.6314 29.542L20.984 28.8438C20.7828 29.0395 20.5879 29.2353 20.3931 29.4376L21.0154 30.0901C21.2165 29.9074 21.424 29.7247 21.6314 29.542Z" fill="#49C1ED"/>
<path d="M20.3618 34.5149C20.4875 34.3648 20.6132 34.2213 20.7389 34.0777L20.2612 33.6992C20.1418 33.8493 20.0223 33.9994 19.9092 34.1495L20.3618 34.5149Z" fill="#49C1ED"/>
<path d="M20.613 32.3421C20.7701 32.1789 20.9336 32.0158 21.1033 31.8592L20.5879 31.3828C20.4307 31.5525 20.2861 31.7287 20.1353 31.9048L20.613 32.3421Z" fill="#49C1ED"/>
<path d="M19.8774 36.3525L20.3363 36.6723C20.4306 36.5352 20.5312 36.4047 20.6255 36.2742L20.1352 35.9414C20.0534 36.085 19.9654 36.2155 19.8774 36.3525Z" fill="#49C1ED"/>
<path d="M19.5503 35.5515L19.1103 35.2578C19.0223 35.3883 18.9343 35.5123 18.8525 35.6428L19.2674 35.9365C19.3617 35.8059 19.456 35.6754 19.5503 35.5515Z" fill="#49C1ED"/>
<path d="M19.2867 32.9297C19.2239 33.008 19.161 33.0863 19.0981 33.1711C19.0478 33.2364 18.9976 33.3082 18.9473 33.3799L19.3684 33.7193C19.4879 33.5757 19.6136 33.4321 19.7393 33.2886L19.2867 32.9297Z" fill="#49C1ED"/>
<path d="M16.3949 38.1109L16.1748 38C16.1057 38.1436 16.0491 38.2871 15.98 38.4307L16.1748 38.5351C16.244 38.3915 16.3194 38.248 16.3949 38.1109Z" fill="#49C1ED"/>
<path d="M19.0728 30.9257L19.6511 31.4543C19.8082 31.2846 19.9654 31.115 20.1288 30.9518L19.5254 30.3906C19.3619 30.5668 19.2173 30.7495 19.0728 30.9257Z" fill="#49C1ED"/>
<path d="M19.601 37.7701L19.1924 37.5352C19.1107 37.6918 19.029 37.8484 18.9473 38.005L19.3181 38.2334C19.4061 38.0702 19.5004 37.9202 19.601 37.7701Z" fill="#49C1ED"/>
<path d="M18.7334 39.2243L18.4191 39.0742C18.3374 39.2504 18.262 39.4201 18.1865 39.5963L18.4631 39.7398C18.5511 39.5636 18.6391 39.394 18.7334 39.2243Z" fill="#49C1ED"/>
<path d="M23.6679 31.7422C23.4793 31.9184 23.2907 32.1011 23.1084 32.2838L23.649 32.845C23.8313 32.6623 24.0136 32.4861 24.2022 32.3099L23.6679 31.7422Z" fill="#49C1ED"/>
<path d="M24.3407 29.6523C24.1018 29.8416 23.863 30.0308 23.6304 30.2266L24.8687 31.7013C25.0887 31.5121 25.3088 31.3229 25.5351 31.1467L24.3407 29.6523Z" fill="#49C1ED"/>
<path d="M15.5092 39.935L15.3769 39.8828C15.3329 39.9937 15.2951 40.1047 15.2573 40.2156L15.3707 40.2678C15.4084 40.1569 15.4588 40.0459 15.5092 39.935Z" fill="#49C1ED"/>
<path d="M24.2149 26.0977C23.9132 26.3195 23.6114 26.5479 23.3223 26.7763L24.0074 27.7094C24.3029 27.5072 24.6109 27.3049 24.9126 27.1156L24.2149 26.0977Z" fill="#49C1ED"/>
<path d="M22.3794 33.0391C22.2285 33.2087 22.0776 33.3784 21.9268 33.548L22.4862 34.0636C22.5051 34.044 22.5176 34.0244 22.5365 34.0114C22.6685 33.8613 22.8068 33.7112 22.9388 33.5611L22.3794 33.0391Z" fill="#49C1ED"/>
<path d="M25.9749 24.9219C25.6166 25.1437 25.2646 25.3787 24.9126 25.6136L27.5465 29.692C27.8419 29.4962 28.1499 29.3135 28.4579 29.1308L25.9749 24.9219Z" fill="#49C1ED"/>
<path d="M40.144 21C35.9323 21 31.9281 21.9462 28.3262 23.6493L30.5012 28.054C33.4493 26.6967 36.7118 25.9398 40.144 25.9398C43.0418 25.9398 45.8203 26.4749 48.385 27.4602L50.0319 22.8206C46.9581 21.646 43.6264 21 40.144 21Z" fill="#49C1ED"/>
<path d="M27.8295 23.8906C27.4084 24.0994 26.9935 24.3213 26.5786 24.5497L28.9925 28.8173C29.3319 28.6281 29.6839 28.4454 30.0359 28.2757L27.8295 23.8906Z" fill="#49C1ED"/>
<path d="M25.1204 27.4219C24.825 27.6242 24.5358 27.833 24.2529 28.0483L26.1702 30.652C26.4279 30.4562 26.6919 30.2735 26.9559 30.0908L25.1204 27.4219Z" fill="#49C1ED"/>
<path d="M14.2707 39.7756C14.3085 39.6843 14.3463 39.5929 14.384 39.5016L14.1007 39.3906C14.0693 39.482 14.0378 39.5668 14 39.6582L14.2707 39.7756Z" fill="#49C1ED"/>
<path d="M21.5116 32.2383C21.3545 32.4079 21.2036 32.5711 21.0527 32.7473L21.5493 33.204C21.7065 33.0409 21.8699 32.8778 22.0334 32.7212L21.5116 32.2383Z" fill="#49C1ED"/>
<path d="M20.8521 34.9112L21.3738 35.3289C21.4995 35.1788 21.6252 35.0287 21.751 34.8786L21.1978 34.4414C21.0846 34.598 20.9652 34.7546 20.8521 34.9112Z" fill="#49C1ED"/>
<path d="M14.7671 37.7886L15.1002 37.9648C15.1631 37.8343 15.226 37.7103 15.2951 37.5798L14.9368 37.4102C14.8802 37.5341 14.8237 37.6646 14.7671 37.7886Z" fill="#49C1ED"/>
<path d="M23.511 28.6211C23.2658 28.8169 23.027 29.0191 22.7881 29.228L23.3727 29.9197C23.6178 29.7369 23.8693 29.5542 24.1207 29.378L23.511 28.6211Z" fill="#49C1ED"/>
<path d="M21.9962 29.9414C21.8014 30.1306 21.6065 30.3199 21.4116 30.5091L21.9459 31.0703C22.1471 30.8941 22.3545 30.7179 22.562 30.5483L21.9962 29.9414Z" fill="#49C1ED"/>
<path d="M23.4231 31.4818L22.8762 30.8945C22.6813 31.0707 22.4864 31.2534 22.2979 31.4427L22.8259 31.9973C23.0207 31.8146 23.2219 31.645 23.4231 31.4818Z" fill="#49C1ED"/>
<path d="M23.2283 28.2624L22.5494 27.4141C22.298 27.6229 22.0528 27.8447 21.814 28.0601L22.4677 28.8431C22.7192 28.6474 22.9769 28.4516 23.2283 28.2624Z" fill="#49C1ED"/>
<path d="M57.1291 74.2879L56.6639 73.6484C56.4754 73.7789 56.2931 73.916 56.1045 74.0465L56.5885 74.7121C56.7708 74.5751 56.9531 74.4315 57.1291 74.2879Z" fill="#7C8BC5"/>
<path d="M56.2744 73.1067L55.8909 72.5781C55.7024 72.7086 55.5138 72.8326 55.3252 72.9566L55.7401 73.5308C55.9161 73.3938 56.0921 73.2503 56.2744 73.1067Z" fill="#7C8BC5"/>
<path d="M57.3617 68.807L56.9594 68.3828C56.8399 68.4937 56.7205 68.5982 56.6011 68.7026L57.0348 69.1463C57.148 69.0354 57.2548 68.9244 57.3617 68.807Z" fill="#7C8BC5"/>
<path d="M54.9862 72.5009C55.1685 72.3704 55.3508 72.2333 55.5331 72.0963L55.137 71.5547C54.9485 71.6852 54.7662 71.8092 54.5713 71.9266L54.9862 72.5009Z" fill="#7C8BC5"/>
<path d="M55.5576 75.4705L55.0736 74.707C54.841 74.8506 54.6022 74.9876 54.3633 75.1247L54.8662 75.9338C55.0925 75.7837 55.325 75.6336 55.5576 75.4705Z" fill="#7C8BC5"/>
<path d="M58.6191 72.9947L58.1853 72.4727C58.0973 72.5444 58.0156 72.6227 57.9276 72.688C57.871 72.7337 57.8144 72.7728 57.7642 72.8185L58.2168 73.3536C58.3488 73.2361 58.4871 73.1187 58.6191 72.9947Z" fill="#7C8BC5"/>
<path d="M57.4746 72.1147C57.5563 72.0429 57.6317 71.9712 57.7071 71.8994L57.3614 71.4883C57.2168 71.6057 57.0723 71.7167 56.9214 71.8341L57.2923 72.2713C57.3488 72.2126 57.4117 72.1669 57.4746 72.1147Z" fill="#7C8BC5"/>
<path d="M58.5811 67.3979L58.2353 67.0781C58.1159 67.2086 58.0027 67.3391 57.8833 67.4631L58.2605 67.7959C58.3736 67.6654 58.4742 67.5284 58.5811 67.3979Z" fill="#7C8BC5"/>
<path d="M58.2106 69.7L57.8712 69.3477C57.758 69.4521 57.6449 69.5565 57.5317 69.6544L57.89 70.0198C58.0032 69.9154 58.1101 69.811 58.2106 69.7Z" fill="#7C8BC5"/>
<path d="M59.0531 70.5867L58.7576 70.2734C58.6507 70.3713 58.5439 70.4692 58.437 70.5671L58.7576 70.8934C58.8519 70.789 58.9588 70.6911 59.0531 70.5867Z" fill="#7C8BC5"/>
<path d="M55.25 69.8433L55.7152 70.3979C55.8597 70.274 55.998 70.1434 56.1426 70.0195L55.6963 69.4844C55.5454 69.6018 55.4009 69.7258 55.25 69.8433Z" fill="#7C8BC5"/>
<path d="M53.1686 75.2063L52.7286 74.4102C52.452 74.5407 52.1691 74.6712 51.8862 74.7952L52.3388 75.663C52.6154 75.513 52.892 75.3629 53.1686 75.2063Z" fill="#7C8BC5"/>
<path d="M50.6611 76.846L51.1514 77.9879C51.4972 77.8313 51.8366 77.6682 52.1698 77.492L51.6732 76.4414C51.34 76.585 51.0006 76.722 50.6611 76.846Z" fill="#7C8BC5"/>
<path d="M46.9648 74.3516C46.5876 74.469 46.2042 74.58 45.8145 74.6778L47.1408 79.4284C47.606 79.3044 48.0649 79.1739 48.5175 79.0303L46.9648 74.3516Z" fill="#7C8BC5"/>
<path d="M54.0683 73.1265L53.6597 72.4805C53.4334 72.611 53.2008 72.7415 52.9683 72.8589L53.3894 73.5441C53.622 73.4136 53.8483 73.27 54.0683 73.1265Z" fill="#7C8BC5"/>
<path d="M56.9158 70.9476L56.5449 70.5039C56.4004 70.6214 56.2495 70.7388 56.0986 70.8563L56.4884 71.3196C56.633 71.1956 56.7775 71.0716 56.9158 70.9476Z" fill="#7C8BC5"/>
<path d="M54.7595 74.2177L54.3383 73.5586C54.1057 73.6956 53.8731 73.8261 53.6343 73.9501L54.0743 74.6614C54.3069 74.5178 54.5332 74.3678 54.7595 74.2177Z" fill="#7C8BC5"/>
<path d="M53.8983 76.545L53.4017 75.6445C53.1188 75.7881 52.8297 75.9317 52.5405 76.0622L53.0434 77.0345C53.3326 76.8713 53.6217 76.7147 53.8983 76.545Z" fill="#7C8BC5"/>
<path d="M52.7855 72.5572C53.0055 72.4202 53.2255 72.2831 53.4455 72.1331L53.0181 71.4609C52.8043 71.6045 52.5906 71.7415 52.3706 71.8786L52.7855 72.5572Z" fill="#7C8BC5"/>
<path d="M63.2959 66.8547L63.5477 67.0178C63.5918 66.946 63.6359 66.8743 63.68 66.8025L63.447 66.6328C63.3966 66.7046 63.3463 66.7829 63.2959 66.8547Z" fill="#7C8BC5"/>
<path d="M62.3656 68.7656C62.441 68.6612 62.5164 68.5568 62.5919 68.4524L62.3027 68.2109C62.221 68.3153 62.1393 68.4263 62.0513 68.5307L62.3656 68.7656Z" fill="#7C8BC5"/>
<path d="M54.2943 71.5402C54.4766 71.4097 54.6526 71.2726 54.8286 71.1291L54.3697 70.4961C54.3257 70.5287 54.288 70.5613 54.244 70.5874C54.1057 70.6919 53.9674 70.7897 53.8291 70.8941L54.2943 71.5402Z" fill="#7C8BC5"/>
<path d="M62.567 65.9937L62.4662 65.9219C62.4033 66.0132 62.3403 66.1046 62.2773 66.1959L62.397 66.2742C62.4599 66.1829 62.5166 66.085 62.567 65.9937Z" fill="#7C8BC5"/>
<path d="M51.7173 74.471C51.9939 74.334 52.2642 74.197 52.5282 74.0469L51.5916 72.3438C51.3402 72.4873 51.0824 72.6243 50.8247 72.7614L51.7173 74.471Z" fill="#7C8BC5"/>
<path d="M59.5057 68.2519L59.2165 67.9844C59.1097 68.1018 59.0028 68.2258 58.8896 68.3367L59.204 68.6108C59.3045 68.4934 59.4051 68.3759 59.5057 68.2519Z" fill="#7C8BC5"/>
<path d="M49.1832 78.8058C49.5855 78.6557 49.9815 78.4991 50.3776 78.336L48.5672 73.8008C48.234 73.9313 47.8883 74.0553 47.5488 74.1727L49.1832 78.8058Z" fill="#7C8BC5"/>
<path d="M50.5162 76.513C50.8493 76.376 51.1762 76.2259 51.5031 76.0693L50.1139 73.1133C49.8184 73.2568 49.523 73.3873 49.2275 73.5179L50.5162 76.513Z" fill="#7C8BC5"/>
<path d="M45.3114 74.7988C43.6519 75.1772 41.9233 75.3861 40.1506 75.3861C35.5743 75.3861 31.2998 74.0483 27.6665 71.7188L25.1709 75.9277C29.5271 78.714 34.6566 80.3258 40.1506 80.3258C42.3696 80.3258 44.532 80.0583 46.6064 79.5624L45.3114 74.7988Z" fill="#7C8BC5"/>
<path d="M60.3917 69.0825L60.1592 68.8672C60.0586 68.9781 59.958 69.0825 59.8574 69.1935L60.1151 69.4153C60.2032 69.3044 60.2974 69.1935 60.3917 69.0825Z" fill="#7C8BC5"/>
<path d="M60.31 67.2162C60.4105 67.0857 60.5048 66.9487 60.5991 66.8181L60.3665 66.6289C60.2597 66.7594 60.1528 66.8965 60.0522 67.027L60.31 67.2162Z" fill="#7C8BC5"/>
<path d="M60.0147 71.6064L59.625 71.1953C59.5244 71.2867 59.4238 71.378 59.3232 71.4694L59.7381 71.8935C59.8324 71.7957 59.9204 71.7043 60.0147 71.6064Z" fill="#7C8BC5"/>
<path d="M59.6188 66.007L59.3485 65.7852C59.2291 65.9287 59.1097 66.0723 58.9902 66.2158L59.3045 66.4507C59.4114 66.3072 59.5183 66.1571 59.6188 66.007Z" fill="#7C8BC5"/>
<path d="M61.5982 65.288L61.4348 65.1641C61.3594 65.275 61.2839 65.3794 61.2085 65.4903L61.3971 65.6143C61.4599 65.5099 61.5291 65.399 61.5982 65.288Z" fill="#7C8BC5"/>
<path d="M60.7881 70.0072L61.159 70.3269C61.2407 70.2291 61.3224 70.1247 61.4041 70.0203L61.0647 69.707C60.9704 69.8049 60.8824 69.9028 60.7881 70.0072Z" fill="#7C8BC5"/>
<path d="M61.2715 67.94C61.3595 67.8225 61.4412 67.6985 61.5293 67.5745L61.3595 67.4375C61.2652 67.555 61.171 67.6724 61.0767 67.7899L61.2715 67.94Z" fill="#7C8BC5"/>
<path d="M60.3729 64.4023C60.2849 64.5329 60.2032 64.6568 60.1089 64.7873L60.3226 64.9244C60.4043 64.7939 60.4798 64.6699 60.5552 64.5394L60.3729 64.4023Z" fill="#7C8BC5"/>
<path d="M43.5134 54.1545C42.6522 55.0485 41.4641 55.6032 40.1441 55.6032C37.5165 55.6032 35.3855 53.3911 35.3855 50.6634C35.3855 47.9358 37.5165 45.7236 40.1441 45.7236C41.4578 45.7236 42.6522 46.2783 43.5134 47.1723L46.8827 43.6746C45.1603 41.8867 42.7779 40.7773 40.1503 40.7773C34.8889 40.7773 30.627 45.2016 30.627 50.6634C30.627 56.1252 34.8889 60.5495 40.1503 60.5495C42.7779 60.5495 45.1603 59.4402 46.8827 57.6522L43.5134 54.1545Z" fill="#232653"/>
<path d="M83.3733 54.1545C82.5121 55.0485 81.324 55.6032 80.0039 55.6032C77.3763 55.6032 75.2454 53.391 75.2454 50.6634C75.2454 47.9358 77.3763 45.7236 80.0039 45.7236C81.3177 45.7236 82.5121 46.2783 83.3733 47.1723L86.7426 43.6746C85.0202 41.8867 82.6378 40.7773 80.0102 40.7773C74.7488 40.7773 70.4868 45.2016 70.4868 50.6634C70.4868 56.1252 74.7488 60.5495 80.0102 60.5495C82.6378 60.5495 85.0202 59.4401 86.7426 57.6522L83.3733 54.1545Z" fill="#232653"/>
<path d="M53.8411 41.7617H49.0825V59.5566H53.8411V41.7617Z" fill="#232653"/>
<path d="M69.2797 41.7617H56.563V46.708H63.2702L60.5421 48.3263V59.5566H65.3006V46.708H69.2797V41.7617Z" fill="#232653"/>
<path d="M30.6643 61.9228C30.4946 61.7923 30.3312 61.6553 30.1677 61.5117L29.6963 62.0207C29.8534 62.1838 30.0106 62.3405 30.174 62.4971L30.6643 61.9228Z" fill="#4D4193"/>
<path d="M29.1499 60.5469L28.7476 60.9058C28.8859 61.0885 29.0304 61.2647 29.1813 61.4409L29.6276 61.0167C29.4642 60.8666 29.307 60.71 29.1499 60.5469Z" fill="#4D4193"/>
<path d="M31.1108 63.842C30.9159 63.7245 30.7211 63.6005 30.5325 63.4766L30.1113 64.0312C30.2999 64.1878 30.4885 64.3379 30.6771 64.4815L31.1108 63.842Z" fill="#4D4193"/>
<path d="M27.5402 60.7563C27.4082 60.5997 27.2825 60.4366 27.1568 60.2734L26.9619 60.417C27.0751 60.5932 27.1882 60.7694 27.3076 60.939L27.5402 60.7563Z" fill="#4D4193"/>
<path d="M29.7905 62.945C29.6082 62.8015 29.4259 62.6579 29.2499 62.5078L28.8916 62.8993C29.0613 63.0755 29.231 63.2452 29.4008 63.4083L29.7905 62.945Z" fill="#4D4193"/>
<path d="M28.3198 62.2688L28.6467 61.9556C28.4769 61.7924 28.3135 61.6228 28.1501 61.4531L27.8672 61.7076C28.0118 61.9034 28.1626 62.0861 28.3198 62.2688Z" fill="#4D4193"/>
<path d="M48.0648 63.0117C45.7956 64.5778 43.0737 65.4979 40.1444 65.4979C39.2644 65.4979 38.3969 65.4131 37.5608 65.2565L36.6431 70.1049C37.7808 70.3268 38.9501 70.4442 40.1444 70.4442C44.048 70.4442 47.6814 69.224 50.705 67.1293L48.0648 63.0117Z" fill="#4D4193"/>
<path d="M25.2209 61.7188L24.9443 61.9276C25.0638 62.1168 25.1895 62.2995 25.3152 62.4822L25.6169 62.2473C25.4849 62.0711 25.3529 61.9015 25.2209 61.7188Z" fill="#4D4193"/>
<path d="M36.1839 64.918L34.8701 69.6359C35.1907 69.7403 35.5176 69.8447 35.8507 69.9295C35.9702 69.9556 36.0896 69.9883 36.209 70.0144L37.1645 65.1725C36.8314 65.0942 36.5045 65.0093 36.1839 64.918Z" fill="#4D4193"/>
<path d="M26.3332 63.0898L26 63.39C26.1634 63.5988 26.3332 63.8011 26.5092 64.0034L26.8738 63.6576C26.6852 63.4748 26.5029 63.2856 26.3332 63.0898Z" fill="#4D4193"/>
<path d="M30.8345 63.077C31.0042 63.2206 31.1802 63.3511 31.3562 63.4881L31.8465 62.7638C31.6705 62.6529 31.5008 62.542 31.3311 62.418L30.8345 63.077Z" fill="#4D4193"/>
<path d="M32.0731 65.392L32.5194 64.5633C32.2806 64.4589 32.048 64.3479 31.8154 64.2305L31.3628 64.9613C31.5954 65.1114 31.8342 65.255 32.0731 65.392Z" fill="#4D4193"/>
<path d="M26.5787 61.5025C26.4467 61.3393 26.3147 61.1697 26.1827 61L25.9941 61.1436C26.1136 61.3263 26.233 61.5025 26.3524 61.6786L26.5787 61.5025Z" fill="#4D4193"/>
<path d="M28.5964 59.9321C28.4644 59.782 28.3387 59.6254 28.2193 59.4688L27.9238 59.6906C28.0307 59.8668 28.1376 60.0365 28.2507 60.1996L28.5964 59.9321Z" fill="#4D4193"/>
<path d="M32.9399 67.6767C32.613 67.5527 32.2924 67.4157 31.9718 67.2656L31.5381 68.1531C31.865 68.3358 32.1918 68.5185 32.5313 68.6817L32.9399 67.6767Z" fill="#4D4193"/>
<path d="M34.6877 68.239C34.3106 68.1412 33.9397 68.0302 33.5688 67.9062L33.1665 68.9764C33.55 69.1461 33.9334 69.3027 34.3294 69.4463L34.6877 68.239Z" fill="#4D4193"/>
<path d="M33.4681 66.3731C33.1601 66.2753 32.8584 66.1643 32.5692 66.0469L32.1606 66.8821C32.4624 67.0453 32.7641 67.1954 33.0784 67.3389L33.4681 66.3731Z" fill="#4D4193"/>
<path d="M35.712 64.7663C35.4292 64.6685 35.1463 64.5641 34.8697 64.4531L33.6816 67.6049C34.0337 67.7485 34.392 67.879 34.7566 68.003L35.712 64.7663Z" fill="#4D4193"/>
<path d="M31.9971 63.9327C32.2108 64.0698 32.4245 64.2003 32.6445 64.3243L33.0594 63.5477C32.8583 63.4303 32.6571 63.2998 32.4622 63.1758L31.9971 63.9327Z" fill="#4D4193"/>
<path d="M27.7609 62.8046C27.5848 62.6284 27.4088 62.4522 27.2454 62.2695L26.9751 62.511C27.1322 62.7067 27.2957 62.9025 27.4591 63.0917L27.7609 62.8046Z" fill="#4D4193"/>
<path d="M32.7139 65.7387C32.9905 65.8757 33.2796 66.0062 33.5625 66.1302L34.342 64.2183C34.1031 64.1073 33.8642 63.9899 33.6316 63.8594L32.7139 65.7387Z" fill="#4D4193"/>
<path d="M29.6651 65.975C29.5582 65.9032 29.445 65.8315 29.3382 65.7597C29.225 65.6814 29.1119 65.59 28.9987 65.5117L28.5713 66.0794C28.7913 66.2621 29.0113 66.4449 29.2313 66.621L29.6651 65.975Z" fill="#4D4193"/>
<path d="M28.9862 63.893C28.7914 63.7364 28.6028 63.5733 28.4142 63.4102L28.0811 63.7756C28.2571 63.9583 28.4394 64.141 28.6279 64.3172L28.9862 63.893Z" fill="#4D4193"/>
<path d="M31.8905 65.7392C31.6327 65.6152 31.3813 65.4912 31.1298 65.3477L30.7275 66.0002C30.979 66.1699 31.2304 66.333 31.4882 66.4896L31.8905 65.7392Z" fill="#4D4193"/>
<path d="M28.1695 64.858C27.9621 64.6883 27.7609 64.5121 27.5661 64.3359L27.1826 64.7536C27.3712 64.9559 27.5661 65.1451 27.7672 65.3409L28.1695 64.858Z" fill="#4D4193"/>
<path d="M31.2558 66.9216C30.9792 66.7781 30.7089 66.628 30.4386 66.4648L29.9985 67.1826C30.2688 67.3719 30.5454 67.5546 30.822 67.7308L31.2558 66.9216Z" fill="#4D4193"/>
<path d="M29.9984 65.4802L30.3881 64.9059C30.1807 64.7754 29.9732 64.6318 29.7658 64.4883L29.3823 64.9907C29.4829 65.0756 29.5835 65.1604 29.6903 65.2452C29.7909 65.3235 29.8978 65.4018 29.9984 65.4802Z" fill="#4D4193"/>
<path d="M38.0629 34.3434L38.0126 33.9453C37.7612 33.9714 37.5097 34.004 37.2583 34.0432L37.3274 34.513C37.5789 34.4543 37.8178 34.3956 38.0629 34.3434Z" fill="#2A4B9B"/>
<path d="M38.233 35.7018L38.1638 35.1602C37.9249 35.1863 37.6861 35.2189 37.4409 35.2515L37.5352 35.8649C37.7678 35.8062 38.0004 35.754 38.233 35.7018Z" fill="#2A4B9B"/>
<path d="M28.2505 35.2751L29.0237 36.2539C29.3003 35.9929 29.5831 35.7449 29.8723 35.51L29.2248 34.5508C28.8917 34.7792 28.5711 35.0206 28.2505 35.2751Z" fill="#2A4B9B"/>
<path d="M31.8906 35.6868L31.438 34.8516C31.1552 35.0212 30.8723 35.1974 30.5957 35.3801L31.1552 36.2545C31.3878 36.0588 31.6329 35.8695 31.8906 35.6868Z" fill="#2A4B9B"/>
<path d="M36.875 31.4977L36.9567 32.0132C37.2207 31.9544 37.491 31.8957 37.7613 31.85L37.7048 31.3867C37.4282 31.4193 37.1516 31.452 36.875 31.4977Z" fill="#2A4B9B"/>
<path d="M32.7078 33.5969L32.3683 32.8008C32.0729 32.9313 31.7774 33.0683 31.4883 33.2119L31.9094 34.0537C32.1672 33.8971 32.4375 33.7404 32.7078 33.5969Z" fill="#2A4B9B"/>
<path d="M31.2361 34.4851L30.7521 33.5977C30.4378 33.7738 30.1234 33.9631 29.8154 34.1588L30.4 35.0789C30.6766 34.8766 30.9532 34.6744 31.2361 34.4851Z" fill="#2A4B9B"/>
<path d="M38.8052 31.3086L38.824 31.7067C39.0629 31.6806 39.3081 31.661 39.5469 31.6414L39.5344 31.2891C39.2955 31.2891 39.0503 31.2956 38.8052 31.3086Z" fill="#2A4B9B"/>
<path d="M39.597 32.8743L39.5907 32.6328C39.3518 32.6328 39.113 32.6393 38.8804 32.6524L38.8992 32.946C39.1255 32.9134 39.3581 32.8938 39.597 32.8743Z" fill="#2A4B9B"/>
<path d="M27.7985 35.6328C27.5785 35.8221 27.3585 36.0113 27.1447 36.2071C27.0316 36.3115 26.9247 36.4224 26.8179 36.5333L30.1684 40.044C30.3946 39.8156 30.6209 39.6003 30.8598 39.3849L27.7985 35.6328Z" fill="#2A4B9B"/>
<path d="M39.6915 35.471L39.679 35.0925C39.4527 35.086 39.2326 35.0925 39.0063 35.0991L39.0315 35.5559C39.2515 35.5232 39.4715 35.4971 39.6915 35.471Z" fill="#2A4B9B"/>
<path d="M37.9128 33.0946L37.8688 32.7227C37.6048 32.7488 37.3407 32.7879 37.083 32.8271L37.1459 33.2643C37.3973 33.199 37.655 33.1468 37.9128 33.0946Z" fill="#2A4B9B"/>
<path d="M39.6411 34.1152L39.6348 33.8672C39.4022 33.8672 39.1759 33.8672 38.9434 33.8802L38.9622 34.1935C39.1885 34.1608 39.4148 34.1347 39.6411 34.1152Z" fill="#2A4B9B"/>
<path d="M36.0264 32.2526L35.9007 31.6719C35.6241 31.7306 35.3538 31.7959 35.0835 31.8611L35.2469 32.4941C35.5047 32.4093 35.7687 32.3309 36.0264 32.2526Z" fill="#2A4B9B"/>
<path d="M36.567 34.7486L36.4476 34.207C36.2087 34.2592 35.9698 34.318 35.731 34.3897L35.8881 34.9901C36.1144 34.8987 36.3407 34.8204 36.567 34.7486Z" fill="#2A4B9B"/>
<path d="M36.85 36.0667L36.7054 35.3945C36.4791 35.4402 36.2591 35.4989 36.0391 35.5577L36.2276 36.282C36.4288 36.2037 36.6425 36.1319 36.85 36.0667Z" fill="#2A4B9B"/>
<path d="M32.0472 35.9805C31.7895 36.1371 31.5381 36.3067 31.2866 36.4764L32.3867 38.2056C32.6004 38.0621 32.8141 37.9251 33.0341 37.7945L32.0472 35.9805Z" fill="#2A4B9B"/>
<path d="M33.2289 34.8259L32.9145 34.082C32.6442 34.206 32.3802 34.3365 32.1162 34.4736L32.5059 35.2631C32.7448 35.1131 32.9837 34.9695 33.2289 34.8259Z" fill="#2A4B9B"/>
<path d="M33.8763 36.3477C33.65 36.4521 33.43 36.563 33.2163 36.6805L33.6123 37.4766C33.8135 37.3656 34.0209 37.2612 34.2221 37.1633L33.8763 36.3477Z" fill="#2A4B9B"/>
<path d="M26.5032 36.8672C23.159 40.4301 21.0972 45.2981 21.0972 50.662H25.862C25.862 46.6554 27.3958 43.0142 29.8851 40.3453L26.5032 36.8672Z" fill="#2A4B9B"/>
<path d="M30.0422 35.7656C29.7468 35.981 29.4513 36.2028 29.1685 36.4443L31.2366 39.074C31.4566 38.8913 31.6829 38.7151 31.9092 38.5455L30.0422 35.7656Z" fill="#2A4B9B"/>
<path d="M34.0904 32.938C34.1533 32.9119 34.2162 32.8858 34.279 32.8662L34.059 32.168C33.7887 32.2528 33.5184 32.3507 33.2544 32.4486L33.531 33.1925C33.7133 33.1011 33.9019 33.0163 34.0904 32.938Z" fill="#2A4B9B"/>
<path d="M33.7387 36.0331L33.4055 35.25C33.1604 35.3675 32.9215 35.4849 32.6826 35.6154L33.0912 36.4442C33.3049 36.3006 33.5187 36.1636 33.7387 36.0331Z" fill="#2A4B9B"/>
<path d="M34.669 34.103L34.4679 33.4766C34.4113 33.4961 34.3547 33.5092 34.2982 33.5288C34.1096 33.594 33.921 33.6658 33.7324 33.7441L33.9839 34.4228C34.2102 34.3118 34.4365 34.2074 34.669 34.103Z" fill="#2A4B9B"/>
<path d="M35.4549 36.5956L35.2097 35.8125C35.0023 35.8843 34.7948 35.9561 34.5874 36.0409L34.8954 36.8631C35.0777 36.7652 35.2663 36.6739 35.4549 36.5956Z" fill="#2A4B9B"/>
<path d="M35.0582 35.3362L34.8445 34.6641C34.6182 34.7424 34.3919 34.8272 34.1719 34.9186L34.4422 35.6429C34.6433 35.5319 34.8508 35.4341 35.0582 35.3362Z" fill="#2A4B9B"/>
<path d="M36.2967 33.4959L36.1898 33C35.9321 33.0587 35.6806 33.1175 35.4292 33.1892L35.5738 33.7439C35.8064 33.6591 36.0515 33.5742 36.2967 33.4959Z" fill="#2A4B9B"/>
</svg>
