<svg width="500" height="118" viewBox="0 0 500 118" fill="none" xmlns="http://www.w3.org/2000/svg">
<path d="M134.19 0H132.681V117.647H134.19V0Z" fill="#232653"/>
<path d="M164.624 54.6991L162.425 56.1309C161.575 55.0103 160.226 54.2737 158.727 54.2737C156.018 54.2737 154.009 56.5148 154.009 59.2954C154.009 62.0864 156.018 64.3171 158.727 64.3171C160.236 64.3171 161.535 63.5597 162.425 62.4184L164.624 63.8917C163.284 65.7281 161.126 66.8902 158.707 66.8902C154.579 66.8902 151.221 63.487 151.221 59.2954C151.221 55.0933 154.579 51.7006 158.707 51.7006C161.126 51.7006 163.274 52.8626 164.624 54.6991Z" fill="#232653"/>
<path d="M178.646 61.4118C178.646 64.5348 176.207 66.9004 172.969 66.9004C169.781 66.9004 167.332 64.5348 167.332 61.4118C167.332 58.2888 169.771 55.9232 172.969 55.9232C176.207 55.9232 178.646 58.2888 178.646 61.4118ZM169.781 61.4118C169.781 63.2897 171.14 64.7008 172.969 64.7008C174.818 64.7008 176.197 63.2897 176.197 61.4118C176.197 59.5338 174.818 58.1228 172.969 58.1228C171.15 58.1228 169.781 59.5338 169.781 61.4118Z" fill="#232653"/>
<path d="M191.46 57.6351C192.899 56.3693 194.228 55.9232 195.747 55.9232C197.796 55.9232 199.366 57.1682 199.366 59.6791V66.6825H196.887V60.4157C196.887 58.8283 196.057 58.0086 194.788 58.0086C193.649 58.0086 192.629 58.4133 191.76 59.1499C191.859 59.6376 191.899 60.063 191.899 60.6232V66.6825H189.441V60.4157C189.441 58.8283 188.591 58.0086 187.322 58.0086C186.282 58.0086 185.433 58.3199 184.453 59.1499V66.6825H181.975V56.141H184.453V57.5729C185.713 56.4316 187.012 55.9232 188.401 55.9232C189.751 55.9232 190.87 56.4938 191.46 57.6351Z" fill="#232653"/>
<path d="M212.489 57.6351C213.928 56.3693 215.258 55.9232 216.777 55.9232C218.826 55.9232 220.395 57.1682 220.395 59.6791V66.6825H217.916V60.4157C217.916 58.8283 217.087 58.0086 215.817 58.0086C214.678 58.0086 213.658 58.4133 212.789 59.1499C212.889 59.6376 212.929 60.063 212.929 60.6232V66.6825H210.47V60.4157C210.47 58.8283 209.62 58.0086 208.351 58.0086C207.312 58.0086 206.462 58.3199 205.483 59.1499V66.6825H203.004V56.141H205.483V57.5729C206.742 56.4316 208.041 55.9232 209.431 55.9232C210.78 55.9232 211.899 56.4938 212.489 57.6351Z" fill="#232653"/>
<path d="M234.267 56.1409V66.6927H231.788V65.3439C230.549 66.3607 229.04 66.9106 227.6 66.9106C225.282 66.9106 223.902 65.4788 223.902 63.1547V56.1513H226.361V62.4181C226.361 63.9121 227.171 64.8044 228.64 64.8044C229.699 64.8044 230.859 64.3583 231.788 63.4971V56.1513H234.267V56.1409Z" fill="#232653"/>
<path d="M248.46 59.6795V66.6829H246.002V60.4161C246.002 58.9013 245.192 58.009 243.723 58.009C242.663 58.009 241.504 58.4759 240.574 59.3371V66.6829H238.096V56.1415H240.574V57.4695C241.814 56.4735 243.323 55.934 244.762 55.934C247.071 55.9236 248.46 57.345 248.46 59.6795Z" fill="#232653"/>
<path d="M254.857 53.4541C254.857 54.1908 254.247 54.7614 253.517 54.7614C252.768 54.7614 252.158 54.1908 252.158 53.4541C252.158 52.7382 252.768 52.1468 253.517 52.1468C254.247 52.1468 254.857 52.7382 254.857 53.4541ZM254.757 66.6931H252.298V56.1413H254.757V66.6931Z" fill="#232653"/>
<path d="M268.14 58.1228L266.251 59.2225C265.622 58.4859 264.812 58.1228 263.793 58.1228C262.063 58.1228 260.704 59.5338 260.704 61.4118C260.704 63.269 262.063 64.7008 263.793 64.7008C264.852 64.7008 265.721 64.2754 266.311 63.518L268.22 64.6178C267.181 66.0288 265.532 66.9004 263.743 66.9004C260.734 66.9004 258.275 64.4518 258.275 61.4118C258.275 58.3718 260.734 55.9232 263.743 55.9232C265.492 55.9232 267.121 56.7532 268.14 58.1228Z" fill="#232653"/>
<path d="M281.353 56.141V66.6928H278.894V65.4686C278.104 66.3712 276.905 66.9004 275.576 66.9004C272.787 66.9004 270.658 64.5348 270.658 61.4118C270.658 58.268 272.797 55.9232 275.576 55.9232C276.895 55.9232 278.094 56.4523 278.894 57.355V56.1307H281.353V56.141ZM278.894 63.269V59.5546C278.284 58.6519 277.245 58.1228 276.145 58.1228C274.336 58.1228 273.097 59.5338 273.097 61.4118C273.097 63.2897 274.336 64.7008 276.145 64.7008C277.245 64.7111 278.284 64.182 278.894 63.269Z" fill="#232653"/>
<path d="M291.908 66.1638C291.028 66.6515 290.179 66.9005 289.239 66.9005C287.33 66.9005 285.781 65.6554 285.781 63.2276V58.1851H284.172V56.1411H285.781V53.2049H288.25V56.1411H291.138V58.1851H288.25V62.8333C288.25 64.1198 289.059 64.732 290.019 64.732C290.628 64.732 291.138 64.5867 291.588 64.3481L291.908 66.1638Z" fill="#232653"/>
<path d="M297.704 53.4541C297.704 54.1908 297.095 54.7614 296.365 54.7614C295.616 54.7614 295.006 54.1908 295.006 53.4541C295.006 52.7382 295.616 52.1468 296.365 52.1468C297.095 52.1468 297.704 52.7382 297.704 53.4541ZM297.604 66.6931H295.146V56.1413H297.604V66.6931Z" fill="#232653"/>
<path d="M312.426 61.4118C312.426 64.5348 309.988 66.9004 306.749 66.9004C303.561 66.9004 301.112 64.5348 301.112 61.4118C301.112 58.2888 303.551 55.9232 306.749 55.9232C309.988 55.9232 312.426 58.2888 312.426 61.4118ZM303.561 61.4118C303.561 63.2897 304.92 64.7008 306.749 64.7008C308.598 64.7008 309.978 63.2897 309.978 61.4118C309.978 59.5338 308.598 58.1228 306.749 58.1228C304.92 58.1228 303.561 59.5338 303.561 61.4118Z" fill="#232653"/>
<path d="M326.15 59.6795V66.6829H323.691V60.4161C323.691 58.9013 322.881 58.009 321.412 58.009C320.353 58.009 319.193 58.4759 318.264 59.3371V66.6829H315.785V56.1415H318.264V57.4695C319.503 56.4735 321.012 55.934 322.452 55.934C324.771 55.9236 326.15 57.345 326.15 59.6795Z" fill="#232653"/>
<path d="M337.724 57.0852L336.894 58.7556C335.895 58.1435 334.575 57.7596 333.496 57.7596C332.397 57.7596 331.827 58.1435 331.827 58.9217C331.827 59.5338 332.177 59.7621 333.576 60.1667L334.715 60.4883C337.114 61.1627 338.014 62.0135 338.014 63.5698C338.014 65.6761 336.444 66.9004 333.766 66.9004C332.037 66.9004 330.328 66.392 329.028 65.4893L329.878 63.8604C331.057 64.6178 332.497 65.0639 333.846 65.0639C335.085 65.0639 335.695 64.6385 335.695 63.7566C335.695 63.1237 335.395 62.8954 334.106 62.5116L332.826 62.1484C330.348 61.4325 329.468 60.6751 329.468 59.1499C329.468 57.1267 331.017 55.9232 333.556 55.9232C335.035 55.9232 336.584 56.3486 337.724 57.0852Z" fill="#232653"/>
<path d="M358.573 63.7561L360.032 65.3643L358.283 66.9103L357.004 65.437C355.745 66.433 354.275 66.9103 352.546 66.9103C349.418 66.9103 347.419 65.4162 347.419 62.895C347.419 61.1208 348.398 59.8965 351.017 58.5269L350.797 58.2779C349.898 57.2404 349.538 56.4622 349.538 55.4869C349.538 53.3288 351.327 51.7103 353.646 51.7103C355.825 51.7103 357.424 53.1421 357.424 55.1342C357.424 56.9291 356.464 57.9459 354.295 59.0768L357.084 62.1376C357.634 61.4009 358.143 60.4879 358.573 59.44L360.382 60.2804C359.853 61.6499 359.263 62.8016 358.573 63.7561ZM355.565 63.7561L352.356 60.0625C350.547 61.0378 349.978 61.7122 349.978 62.6563C349.978 63.9844 351.037 64.7833 352.646 64.7833C353.666 64.7937 354.665 64.4305 355.565 63.7561ZM351.717 55.2898C351.717 55.9227 352.107 56.6801 352.606 57.23L352.956 57.6139C354.925 56.6386 355.335 56.1406 355.335 55.1653C355.335 54.2107 354.645 53.5986 353.606 53.5986C352.536 53.5986 351.717 54.3249 351.717 55.2898Z" fill="#232653"/>
<path d="M373.186 66.6929H370.547V51.9183H373.186V66.6929Z" fill="#232653"/>
<path d="M387.787 59.6795V66.6829H385.329V60.4161C385.329 58.9013 384.519 58.009 383.05 58.009C381.99 58.009 380.831 58.4759 379.902 59.3371V66.6829H377.423V56.1415H379.902V57.4695C381.141 56.4735 382.65 55.934 384.089 55.934C386.408 55.9236 387.787 57.345 387.787 59.6795Z" fill="#232653"/>
<path d="M394.434 55.3942V56.1308H397.403V58.1748H394.434V66.6826H391.956V58.1748H390.446V56.1308H391.956V55.3527C391.956 52.7795 393.605 51.7005 395.574 51.7005C396.343 51.7005 397.143 51.825 397.852 52.0636L397.483 53.8378C397.053 53.6926 396.653 53.6096 396.083 53.6096C395.214 53.5992 394.434 54.1284 394.434 55.3942Z" fill="#232653"/>
<path d="M411.006 61.4118C411.006 64.5348 408.567 66.9004 405.328 66.9004C402.14 66.9004 399.691 64.5348 399.691 61.4118C399.691 58.2888 402.13 55.9232 405.328 55.9232C408.567 55.9232 411.006 58.2888 411.006 61.4118ZM402.14 61.4118C402.14 63.2897 403.499 64.7008 405.328 64.7008C407.178 64.7008 408.557 63.2897 408.557 61.4118C408.557 59.5338 407.178 58.1228 405.328 58.1228C403.509 58.1228 402.14 59.5338 402.14 61.4118Z" fill="#232653"/>
<path d="M420.99 58.1642C419.441 58.1642 418.001 58.8179 416.842 60.1252V66.6928H414.363V56.141H416.842V58.1228C418.021 56.7117 419.511 55.9232 420.99 55.9232V58.1642Z" fill="#232653"/>
<path d="M433.134 57.6351C434.573 56.3693 435.902 55.9232 437.421 55.9232C439.47 55.9232 441.039 57.1682 441.039 59.6791V66.6825H438.561V60.4157C438.561 58.8283 437.731 58.0086 436.462 58.0086C435.322 58.0086 434.303 58.4133 433.433 59.1499C433.533 59.6376 433.573 60.063 433.573 60.6232V66.6825H431.115V60.4157C431.115 58.8283 430.265 58.0086 428.996 58.0086C427.956 58.0086 427.107 58.3199 426.127 59.1499V66.6825H423.648V56.141H426.127V57.5729C427.387 56.4316 428.686 55.9232 430.075 55.9232C431.424 55.9232 432.544 56.4938 433.134 57.6351Z" fill="#232653"/>
<path d="M454.952 56.141V66.6928H452.494V65.4686C451.704 66.3712 450.505 66.9004 449.175 66.9004C446.387 66.9004 444.258 64.5348 444.258 61.4118C444.258 58.268 446.397 55.9232 449.175 55.9232C450.495 55.9232 451.694 56.4523 452.494 57.355V56.1307H454.952V56.141ZM452.494 63.269V59.5546C451.884 58.6519 450.844 58.1228 449.745 58.1228C447.936 58.1228 446.697 59.5338 446.697 61.4118C446.697 63.2897 447.936 64.7008 449.745 64.7008C450.844 64.7111 451.884 64.182 452.494 63.269Z" fill="#232653"/>
<path d="M465.507 66.1638C464.628 66.6515 463.778 66.9005 462.839 66.9005C460.93 66.9005 459.381 65.6554 459.381 63.2276V58.1851H457.771V56.1411H459.381V53.2049H461.839V56.1411H464.728V58.1851H461.839V62.8333C461.839 64.1198 462.649 64.732 463.608 64.732C464.218 64.732 464.728 64.5867 465.178 64.3481L465.507 66.1638Z" fill="#232653"/>
<path d="M471.294 53.4541C471.294 54.1908 470.685 54.7614 469.955 54.7614C469.205 54.7614 468.596 54.1908 468.596 53.4541C468.596 52.7382 469.205 52.1468 469.955 52.1468C470.685 52.1468 471.294 52.7382 471.294 53.4541ZM471.194 66.6931H468.736V56.1413H471.194V66.6931Z" fill="#232653"/>
<path d="M486.016 61.4118C486.016 64.5348 483.577 66.9004 480.339 66.9004C477.151 66.9004 474.702 64.5348 474.702 61.4118C474.702 58.2888 477.141 55.9232 480.339 55.9232C483.577 55.9232 486.016 58.2888 486.016 61.4118ZM477.151 61.4118C477.151 63.2897 478.51 64.7008 480.339 64.7008C482.188 64.7008 483.567 63.2897 483.567 61.4118C483.567 59.5338 482.188 58.1228 480.339 58.1228C478.52 58.1228 477.151 59.5338 477.151 61.4118Z" fill="#232653"/>
<path d="M499.749 59.6795V66.6829H497.291V60.4161C497.291 58.9013 496.481 58.009 495.012 58.009C493.952 58.009 492.793 58.4759 491.863 59.3371V66.6829H489.385V56.1415H491.863V57.4695C493.103 56.4735 494.612 55.934 496.051 55.934C498.36 55.9236 499.749 57.345 499.749 59.6795Z" fill="#232653"/>
<path d="M162.975 83.3764H158.417V95.7543H155.778V83.3764H151.221V80.9693H162.975V83.3764Z" fill="#232653"/>
<path d="M174.729 91.2718H166.513C166.773 92.9423 167.872 93.9279 169.522 93.9279C170.801 93.9279 171.84 93.544 172.57 92.8074L173.929 94.1354C172.75 95.2767 171.161 95.9511 169.432 95.9511C166.283 95.9511 164.024 93.5025 164.024 90.4418C164.024 87.381 166.263 84.9739 169.372 84.9739C172.48 84.9739 174.719 87.298 174.719 90.4625V91.2718H174.729ZM172.33 89.674C172.33 88.1073 171.091 86.9764 169.402 86.9764C167.792 86.9764 166.733 87.9932 166.513 89.674H172.33Z" fill="#232653"/>
<path d="M187.422 87.1848L185.532 88.2846C184.903 87.5479 184.093 87.1848 183.074 87.1848C181.345 87.1848 179.985 88.5958 179.985 90.4738C179.985 92.331 181.345 93.7628 183.074 93.7628C184.133 93.7628 185.003 93.3374 185.592 92.58L187.501 93.6798C186.462 95.0908 184.813 95.9624 183.024 95.9624C180.015 95.9624 177.557 93.5138 177.557 90.4738C177.557 87.4338 180.015 84.9852 183.024 84.9852C184.773 84.9852 186.402 85.8048 187.422 87.1848Z" fill="#232653"/>
<path d="M201.124 88.7407V95.7441H198.666V89.4774C198.666 87.9626 197.856 87.0703 196.387 87.0703C195.327 87.0703 194.168 87.5372 193.238 88.3984V95.7441H190.76V80.9695H193.238V86.5204C194.478 85.5244 195.987 84.9848 197.426 84.9848C199.745 84.9848 201.124 86.3959 201.124 88.7407Z" fill="#232653"/>
<path d="M215.158 88.7411V95.7445H212.699V89.4777C212.699 87.9629 211.889 87.0706 210.42 87.0706C209.361 87.0706 208.201 87.5375 207.272 88.3987V95.7445H204.793V85.1927H207.272V86.5207C208.511 85.5247 210.02 84.9852 211.459 84.9852C213.768 84.9852 215.158 86.3962 215.158 88.7411Z" fill="#232653"/>
<path d="M229.67 90.4738C229.67 93.5968 227.231 95.9624 223.993 95.9624C220.804 95.9624 218.355 93.5968 218.355 90.4738C218.355 87.3508 220.794 84.9852 223.993 84.9852C227.231 84.9852 229.67 87.3508 229.67 90.4738ZM220.804 90.4738C220.804 92.3517 222.163 93.7628 223.993 93.7628C225.842 93.7628 227.221 92.3517 227.221 90.4738C227.221 88.5958 225.842 87.1848 223.993 87.1848C222.173 87.1848 220.804 88.5958 220.804 90.4738Z" fill="#232653"/>
<path d="M235.507 95.7545H233.028V80.9695H235.507V95.7545Z" fill="#232653"/>
<path d="M250.189 90.4738C250.189 93.5968 247.75 95.9624 244.512 95.9624C241.324 95.9624 238.875 93.5968 238.875 90.4738C238.875 87.3508 241.314 84.9852 244.512 84.9852C247.75 84.9852 250.189 87.3508 250.189 90.4738ZM241.324 90.4738C241.324 92.3517 242.683 93.7628 244.512 93.7628C246.361 93.7628 247.74 92.3517 247.74 90.4738C247.74 88.5958 246.361 87.1848 244.512 87.1848C242.683 87.1848 241.324 88.5958 241.324 90.4738Z" fill="#232653"/>
<path d="M263.732 85.1918V94.9447C263.732 98.5761 261.413 100.112 258.465 100.112C256.695 100.112 254.886 99.707 253.337 98.7421L254.127 96.9472C255.366 97.7461 256.705 98.1092 258.115 98.1092C259.904 98.1092 261.263 97.1754 261.263 94.9447V94.4778C260.513 95.339 259.354 95.9096 257.925 95.9096C255.136 95.9096 253.027 93.5233 253.027 90.4418C253.027 87.3395 255.146 84.9739 257.925 84.9739C259.344 84.9739 260.503 85.5446 261.263 86.4057V85.1815H263.732V85.1918ZM261.273 92.3094V88.595C260.703 87.7338 259.704 87.1632 258.445 87.1632C256.715 87.1632 255.476 88.595 255.476 90.4522C255.476 92.3094 256.695 93.7412 258.445 93.7412C259.704 93.7412 260.703 93.1705 261.273 92.3094Z" fill="#232653"/>
<path d="M273.068 96.7817C272.198 99.0435 270.909 100.071 269.04 100.071C268.23 100.071 267.331 99.8839 266.331 99.5L267.041 97.7258C267.65 97.9748 268.22 98.1097 268.71 98.1097C269.669 98.1097 270.279 97.6221 270.889 96.4185L271.049 96.0761L266.531 85.1819H269.13L272.138 92.9739L274.987 85.1819H277.545L273.068 96.7817Z" fill="#232653"/>
<path d="M299.414 83.76L297.215 85.1918C296.365 84.0713 295.016 83.3346 293.517 83.3346C290.808 83.3346 288.799 85.5757 288.799 88.3563C288.799 91.1473 290.808 93.378 293.517 93.378C295.026 93.378 296.325 92.6206 297.215 91.4794L299.414 92.9527C298.074 94.7891 295.916 95.9512 293.497 95.9512C289.369 95.9512 286.011 92.548 286.011 88.3563C286.011 84.1543 289.369 80.7615 293.497 80.7615C295.916 80.7615 298.074 81.9236 299.414 83.76Z" fill="#232653"/>
<path d="M313.446 90.4738C313.446 93.5968 311.007 95.9624 307.769 95.9624C304.581 95.9624 302.132 93.5968 302.132 90.4738C302.132 87.3508 304.571 84.9852 307.769 84.9852C311.007 84.9852 313.446 87.3508 313.446 90.4738ZM304.581 90.4738C304.581 92.3517 305.94 93.7628 307.769 93.7628C309.618 93.7628 310.997 92.3517 310.997 90.4738C310.997 88.5958 309.618 87.1848 307.769 87.1848C305.94 87.1848 304.581 88.5958 304.581 90.4738Z" fill="#232653"/>
<path d="M326.259 86.6963C327.699 85.4305 329.028 84.9843 330.547 84.9843C332.596 84.9843 334.165 86.2294 334.165 88.7402V95.7436H331.687V89.4769C331.687 87.8894 330.857 87.0698 329.588 87.0698C328.448 87.0698 327.429 87.4744 326.559 88.2111C326.659 88.6987 326.699 89.1241 326.699 89.6844V95.7436H324.241V89.4769C324.241 87.8894 323.391 87.0698 322.122 87.0698C321.082 87.0698 320.233 87.381 319.253 88.2111V95.7436H316.774V85.1918H319.253V86.6236C320.512 85.4823 321.812 84.9739 323.201 84.9739C324.55 84.9843 325.67 85.555 326.259 86.6963Z" fill="#232653"/>
<path d="M347.279 86.6963C348.718 85.4305 350.048 84.9843 351.567 84.9843C353.626 84.9843 355.185 86.2294 355.185 88.7402V95.7436H352.706V89.4769C352.706 87.8894 351.877 87.0698 350.607 87.0698C349.468 87.0698 348.448 87.4744 347.579 88.2111C347.679 88.6987 347.719 89.1241 347.719 89.6844V95.7436H345.26V89.4769C345.26 87.8894 344.411 87.0698 343.141 87.0698C342.102 87.0698 341.252 87.381 340.273 88.2111V95.7436H337.794V85.1918H340.273V86.6236C341.532 85.4823 342.831 84.9739 344.221 84.9739C345.58 84.9843 346.689 85.555 347.279 86.6963Z" fill="#232653"/>
<path d="M361.601 82.5151C361.601 83.2518 360.991 83.8224 360.262 83.8224C359.512 83.8224 358.902 83.2518 358.902 82.5151C358.902 81.7992 359.512 81.2078 360.262 81.2078C360.991 81.2078 361.601 81.7992 361.601 82.5151ZM361.501 95.7542H359.042V85.192H361.501V95.7542Z" fill="#232653"/>
<path d="M373.375 86.1472L372.546 87.8177C371.546 87.2055 370.227 86.8216 369.147 86.8216C368.048 86.8216 367.478 87.2055 367.478 87.9837C367.478 88.5958 367.828 88.8241 369.227 89.2287L370.367 89.5504C372.765 90.2248 373.665 91.0755 373.665 92.6319C373.665 94.7381 372.096 95.9624 369.417 95.9624C367.688 95.9624 365.979 95.454 364.68 94.5513L365.529 92.9224C366.709 93.6798 368.148 94.1259 369.497 94.1259C370.737 94.1259 371.346 93.7005 371.346 92.8186C371.346 92.1857 371.046 91.9575 369.757 91.5736L368.478 91.2104C365.999 90.4945 365.119 89.7371 365.119 88.2119C365.119 86.1887 366.669 84.9852 369.207 84.9852C370.687 84.9852 372.236 85.4106 373.375 86.1472Z" fill="#232653"/>
<path d="M384.879 86.1472L384.049 87.8177C383.05 87.2055 381.731 86.8216 380.651 86.8216C379.552 86.8216 378.982 87.2055 378.982 87.9837C378.982 88.5958 379.332 88.8241 380.731 89.2287L381.871 89.5504C384.269 90.2248 385.169 91.0755 385.169 92.6319C385.169 94.7381 383.6 95.9624 380.921 95.9624C379.192 95.9624 377.483 95.454 376.184 94.5513L377.033 92.9224C378.213 93.6798 379.652 94.1259 381.001 94.1259C382.24 94.1259 382.85 93.7005 382.85 92.8186C382.85 92.1857 382.55 91.9575 381.261 91.5736L379.982 91.2104C377.503 90.4945 376.623 89.7371 376.623 88.2119C376.623 86.1887 378.173 84.9852 380.711 84.9852C382.2 84.9852 383.74 85.4106 384.879 86.1472Z" fill="#232653"/>
<path d="M391.226 82.5151C391.226 83.2518 390.616 83.8224 389.887 83.8224C389.137 83.8224 388.527 83.2518 388.527 82.5151C388.527 81.7992 389.137 81.2078 389.887 81.2078C390.616 81.2078 391.226 81.7992 391.226 82.5151ZM391.126 95.7542H388.667V85.192H391.126V95.7542Z" fill="#232653"/>
<path d="M405.948 90.4738C405.948 93.5968 403.509 95.9624 400.271 95.9624C397.082 95.9624 394.634 93.5968 394.634 90.4738C394.634 87.3508 397.073 84.9852 400.271 84.9852C403.509 84.9852 405.948 87.3508 405.948 90.4738ZM397.083 90.4738C397.083 92.3517 398.442 93.7628 400.271 93.7628C402.12 93.7628 403.499 92.3517 403.499 90.4738C403.499 88.5958 402.12 87.1848 400.271 87.1848C398.442 87.1848 397.083 88.5958 397.083 90.4738Z" fill="#232653"/>
<path d="M419.671 88.7411V95.7445H417.213V89.4777C417.213 87.9629 416.403 87.0706 414.934 87.0706C413.874 87.0706 412.715 87.5375 411.785 88.3987V95.7445H409.307V85.1927H411.785V86.5207C413.025 85.5247 414.534 84.9852 415.973 84.9852C418.292 84.9852 419.671 86.3962 419.671 88.7411Z" fill="#232653"/>
<path d="M164.004 25.3265C164.854 25.3265 165.523 24.621 165.523 23.7494C165.523 22.8675 164.844 22.1724 164.004 22.1724C163.155 22.1724 162.505 22.8779 162.505 23.7494C162.495 24.6313 163.155 25.3265 164.004 25.3265Z" fill="#232653"/>
<path d="M159.876 25.3265C160.706 25.3265 161.376 24.621 161.376 23.7494C161.376 22.8675 160.696 22.1724 159.876 22.1724C159.007 22.1724 158.327 22.8779 158.327 23.7494C158.327 24.6313 159.007 25.3265 159.876 25.3265Z" fill="#232653"/>
<path d="M170.051 32.2466C169.331 32.5994 167.932 32.8795 166.073 32.8795H157.527C155.139 32.8795 153.719 31.9146 153.719 29.5179C153.719 28.7293 153.869 27.8474 154.119 26.9033L151.81 26.4675C151.431 27.7852 151.221 29.0821 151.221 30.2856C151.221 34.3528 153.779 35.5771 157.358 35.5771H165.713C168.881 35.5771 171.26 34.9857 172.57 34.2387V24.5999H170.051V32.2466Z" fill="#232653"/>
<path d="M190.36 25.2641C187.232 25.2641 184.983 27.6401 184.983 30.9706C184.983 31.4582 185.023 31.9355 185.133 32.3713C184.303 32.7448 183.314 32.8797 182.404 32.8797C181.215 32.8797 180.016 32.641 179.126 32.1741V19.5576H176.607V32.5995C176.607 33.5437 176.867 33.9691 177.627 34.4049C179.956 35.7537 183.494 36.0961 186.152 34.6642C187.122 35.9197 188.611 36.6874 190.36 36.6874C193.469 36.6874 195.707 34.2907 195.707 30.981C195.717 27.6401 193.469 25.2641 190.36 25.2641ZM190.32 34.1558C188.611 34.1558 187.482 32.7759 187.482 30.9706C187.482 29.1445 188.601 27.7853 190.32 27.7853C192.099 27.7853 193.219 29.1445 193.219 30.9706C193.219 32.7759 192.099 34.1558 190.32 34.1558Z" fill="#232653"/>
<path d="M254.247 32.1845C253.357 32.6722 252.088 32.89 250.968 32.89C250.099 32.89 249.129 32.7552 248.32 32.3816C248.43 31.9459 248.47 31.4582 248.47 30.981C248.47 27.6401 246.231 25.2745 243.122 25.2745C239.994 25.2745 237.745 27.6504 237.745 30.981C237.745 31.4894 237.785 31.9459 237.895 32.4128C237.096 32.7655 236.136 32.9004 235.277 32.9004C233.977 32.9004 232.818 32.9004 230.859 32.9004C232.358 31.894 233.397 30.0679 233.397 28.1796C233.397 25.3264 231.199 23.8945 228.07 23.8945C225.951 23.8945 224.032 24.5482 222.463 25.3679L222.043 27.3911L225.452 32.9004C224.102 32.9004 223.003 32.9004 220.944 32.9004C219.735 32.9004 218.555 32.6618 217.686 32.1949V19.5576H215.167V32.1845C214.277 32.641 213.118 32.89 211.889 32.89C211.789 32.89 208.47 32.89 208.67 32.89V26.0215C207.701 25.5131 206.042 24.818 204.013 24.818C200.485 24.818 198.216 26.9968 198.216 30.2443C198.216 33.3673 200.395 35.598 204.313 35.598H206.152C206.022 37.725 204.962 38.804 202.494 38.804C201.144 38.804 199.805 38.472 199.085 38.1919L198.636 40.6612C199.775 41.0763 201.174 41.2941 202.404 41.2941C205.812 41.2941 208.371 39.7171 208.64 35.5877H211.879C213.478 35.5565 214.987 35.2245 216.406 34.3841C217.556 35.0585 219.015 35.5461 220.674 35.5877C220.674 35.5877 230.569 35.5877 235.526 35.5877C236.866 35.5461 238.015 35.183 238.935 34.6642C239.884 35.9197 241.363 36.6874 243.122 36.6874C244.882 36.6874 246.361 35.9197 247.31 34.6642C250.259 36.3243 254.497 35.6603 256.765 33.3051V19.5576H254.247V32.1845ZM206.142 32.8797H203.903C202.064 32.8797 200.705 31.894 200.705 30.0679C200.705 28.1796 202.124 27.2354 203.853 27.2354C204.722 27.2354 205.482 27.4533 206.142 27.7853V32.8797ZM227.74 32.4854L224.902 27.1524C225.791 26.7167 226.871 26.4054 227.97 26.4054C229.769 26.4054 230.869 27.2354 230.869 28.7502C230.869 30.4414 229.45 31.811 227.74 32.4854ZM243.072 34.1558C241.363 34.1558 240.234 32.7759 240.234 30.9706C240.234 29.1445 241.353 27.7853 243.072 27.7853C244.852 27.7853 245.971 29.1445 245.971 30.9706C245.971 32.7759 244.852 34.1558 243.072 34.1558Z" fill="#232653"/>
<path d="M263.552 19.5576H261.033V35.5877H263.552V19.5576Z" fill="#232653"/>
<path d="M280.073 22.473C280.923 22.473 281.593 21.7674 281.593 20.8959C281.593 20.014 280.913 19.3188 280.073 19.3188C279.224 19.3188 278.574 20.0244 278.574 20.8959C278.574 21.7674 279.234 22.473 280.073 22.473Z" fill="#232653"/>
<path d="M275.955 22.473C276.785 22.473 277.455 21.7674 277.455 20.8959C277.455 20.014 276.775 19.3188 275.955 19.3188C275.086 19.3188 274.406 20.0244 274.406 20.8959C274.406 21.7674 275.086 22.473 275.955 22.473Z" fill="#232653"/>
<path d="M288.349 37.1851C287.479 37.1851 286.8 37.8698 286.8 38.7621C286.8 39.6233 287.479 40.3184 288.349 40.3184C289.179 40.3184 289.848 39.6129 289.848 38.7621C289.848 37.8698 289.169 37.1851 288.349 37.1851Z" fill="#232653"/>
<path d="M292.477 37.1851C291.627 37.1851 290.978 37.8698 290.978 38.7621C290.978 39.6233 291.637 40.3184 292.477 40.3184C293.326 40.3184 293.996 39.6129 293.996 38.7621C293.996 37.8698 293.316 37.1851 292.477 37.1851Z" fill="#232653"/>
<path d="M299.473 22.6076C300.323 22.6076 300.973 21.9021 300.973 21.0513C300.973 20.1486 300.313 19.4224 299.473 19.4224C298.584 19.4224 297.904 20.1486 297.904 21.0513C297.904 21.9021 298.584 22.6076 299.473 22.6076Z" fill="#232653"/>
<path d="M313.586 21.5706C314.436 21.5706 315.105 20.8651 315.105 19.9936C315.105 19.1117 314.426 18.4165 313.586 18.4165C312.747 18.4165 312.087 19.122 312.087 19.9936C312.087 20.8755 312.737 21.5706 313.586 21.5706Z" fill="#232653"/>
<path d="M309.458 21.5706C310.288 21.5706 310.958 20.8651 310.958 19.9936C310.958 19.1117 310.278 18.4165 309.458 18.4165C308.589 18.4165 307.909 19.122 307.909 19.9936C307.919 20.8755 308.589 21.5706 309.458 21.5706Z" fill="#232653"/>
<path d="M321.502 22.608C322.331 22.608 323.001 21.9025 323.001 21.0517C323.001 20.149 322.321 19.4746 321.502 19.4746C320.632 19.4746 319.983 20.1594 319.983 21.0517C319.973 21.9025 320.632 22.608 321.502 22.608Z" fill="#232653"/>
<path d="M322.362 32.3085C321.402 32.7754 319.833 32.8791 318.744 32.8791H314.726C315.865 31.935 316.865 30.5343 316.865 28.5111C316.865 25.4815 314.686 23.479 311.517 23.479C308.369 23.479 306.14 25.4503 306.14 28.5111C306.14 30.5343 307.14 31.935 308.279 32.8791C307 32.8791 305.93 32.8791 303.961 32.8791C302.752 32.8791 301.572 32.6405 300.703 32.1736V24.5995H298.184V32.1736C297.295 32.6301 296.135 32.8791 294.906 32.8791C293.697 32.8791 292.517 32.6405 291.648 32.1736V24.5995H289.129V32.1736C288.239 32.6301 287.08 32.8791 285.851 32.8791C285.751 32.8791 282.432 32.8791 282.632 32.8791V25.5852C281.703 25.0353 279.924 24.3817 277.995 24.3817C274.527 24.3817 272.218 26.5294 272.218 29.9844C272.218 33.4083 274.607 35.5871 278.285 35.5871C283.702 35.5871 285.921 35.5871 285.871 35.5871C287.42 35.5768 288.999 35.1929 290.368 34.3836C293.217 36.054 296.825 35.9295 299.424 34.3836C300.633 35.0891 302.172 35.5871 303.931 35.5871C312.697 35.5871 310.348 35.5871 319.053 35.5871C321.512 35.5975 323.721 34.8193 324.87 33.9893V24.6099H322.352V32.3085H322.362ZM280.124 32.8791H277.945C276.086 32.8791 274.726 31.8935 274.726 29.891C274.726 27.8056 276.146 26.8406 277.815 26.8406C278.644 26.8406 279.484 27.0378 280.124 27.3905V32.8791ZM311.507 32.5367C310.238 32.0076 308.649 30.7626 308.649 28.8431C308.649 27.1312 309.858 25.9899 311.507 25.9899C313.156 25.9899 314.346 27.1104 314.346 28.8431C314.346 30.7522 312.757 32.0076 311.507 32.5367Z" fill="#232653"/>
<path d="M325.64 19.4639C324.771 19.4639 324.121 20.1486 324.121 21.0409C324.121 21.9021 324.781 22.5972 325.64 22.5972C326.49 22.5972 327.14 21.8917 327.14 21.0409C327.15 20.1486 326.49 19.4639 325.64 19.4639Z" fill="#232653"/>
<path d="M328.039 30.2231C328.039 33.3461 330.218 35.5769 334.136 35.5769H335.975C335.845 37.7038 334.786 38.7829 332.317 38.7829C330.968 38.7829 329.628 38.4509 328.909 38.1707L328.459 40.6608C329.598 41.0758 330.998 41.2937 332.227 41.2937C335.845 41.2937 338.494 39.5195 338.494 34.8195V26.0107C337.524 25.5023 335.865 24.8072 333.836 24.8072C330.298 24.7968 328.039 26.9756 328.039 30.2231ZM335.965 32.8792H333.726C331.887 32.8792 330.528 31.8936 330.528 30.0675C330.528 28.1792 331.947 27.235 333.676 27.235C334.546 27.235 335.305 27.4529 335.965 27.7849V32.8792Z" fill="#232653"/>
<path d="M360.102 25.3265C360.951 25.3265 361.621 24.621 361.621 23.7494C361.621 22.8675 360.941 22.1724 360.102 22.1724C359.252 22.1724 358.603 22.8779 358.603 23.7494C358.603 24.6313 359.252 25.3265 360.102 25.3265Z" fill="#232653"/>
<path d="M355.974 25.3265C356.804 25.3265 357.473 24.621 357.473 23.7494C357.473 22.8675 356.794 22.1724 355.974 22.1724C355.104 22.1724 354.425 22.8779 354.425 23.7494C354.435 24.6313 355.114 25.3265 355.974 25.3265Z" fill="#232653"/>
<path d="M366.149 32.2468C365.429 32.5996 364.03 32.8797 362.171 32.8797H353.625C351.236 32.8797 349.817 31.9148 349.817 29.518C349.817 28.7295 349.967 27.8476 350.217 26.9034L347.908 26.4677C347.528 27.7854 347.318 29.0823 347.318 30.2858C347.318 34.353 349.877 35.5773 353.455 35.5773H361.811C364.979 35.5773 367.358 34.9859 368.667 34.2389V24.6001H366.149V32.2468Z" fill="#232653"/>
<path d="M381.451 32.0496C380.621 32.641 379.422 32.8589 378.343 32.8797L375.974 22.359H373.475L375.804 32.8797H371.746V35.5773H378.243C380.671 35.5773 382.79 34.4982 383.98 33.2947V19.5576H381.461V32.0496H381.451Z" fill="#232653"/>
<path d="M417.982 22.608C418.812 22.608 419.481 21.9025 419.481 21.0517C419.481 20.149 418.802 19.4746 417.982 19.4746C417.113 19.4746 416.463 20.1594 416.463 21.0517C416.463 21.9025 417.113 22.608 417.982 22.608Z" fill="#232653"/>
<path d="M418.851 32.309C418.132 32.6618 416.882 32.8797 415.573 32.8797C415.473 32.8797 412.285 32.8797 412.485 32.8797V29.933C412.485 25.8659 410.266 23.8738 407.217 23.8738C404.529 23.8738 402.27 25.4509 399.831 28.0655V25.4301H397.313V32.8693C397.223 32.8693 393.984 32.8693 394.034 32.8693C392.845 32.8693 391.646 32.6307 390.756 32.1638V19.5576H388.237V32.5995C388.237 33.5437 388.487 33.9795 389.257 34.4049C390.316 35.017 391.905 35.5565 393.804 35.5877C393.804 35.5877 415.683 35.5877 415.723 35.5877C418.022 35.5669 420.191 34.851 421.37 33.9898V24.6105H418.851V32.309ZM409.986 32.8797H399.831V31.2715C402.52 28.024 404.609 26.4158 406.808 26.4158C409.216 26.4158 409.986 28.3664 409.986 30.3481V32.8797Z" fill="#232653"/>
<path d="M422.13 19.4639C421.26 19.4639 420.61 20.1486 420.61 21.0409C420.61 21.9021 421.27 22.5972 422.13 22.5972C422.979 22.5972 423.629 21.8917 423.629 21.0409C423.629 20.1486 422.979 19.4639 422.13 19.4639Z" fill="#232653"/>
<path d="M434.143 32.0496C433.314 32.641 432.114 32.8589 431.035 32.8797L428.666 22.359H426.168L428.496 32.8797H424.438V35.5773H430.935C433.364 35.5773 435.483 34.4982 436.672 33.2947V19.5576H434.153V32.0496H434.143Z" fill="#232653"/>
<path d="M443.458 19.5576H440.939V35.5877H443.458V19.5576Z" fill="#232653"/>
<path d="M455.852 22.473C456.681 22.473 457.351 21.7674 457.351 20.8959C457.351 20.014 456.671 19.3188 455.852 19.3188C454.982 19.3188 454.303 20.0244 454.303 20.8959C454.303 21.7674 454.982 22.473 455.852 22.473Z" fill="#232653"/>
<path d="M459.98 22.473C460.829 22.473 461.499 21.7674 461.499 20.8959C461.499 20.014 460.819 19.3188 459.98 19.3188C459.13 19.3188 458.481 20.0244 458.481 20.8959C458.471 21.7674 459.13 22.473 459.98 22.473Z" fill="#232653"/>
<path d="M472.543 20.8439H471.313C470.364 20.8439 469.984 20.3874 469.984 19.8583C469.984 19.3706 470.304 19.0282 470.784 19.0282C471.034 19.0282 471.293 19.1424 471.443 19.2876L472.373 18.2605C471.993 17.8869 471.403 17.5342 470.614 17.5342C469.384 17.5342 468.605 18.4368 468.605 19.5366C468.605 20.045 468.775 20.4808 469.095 20.8543H468.075V22.5663H472.543V20.8439Z" fill="#232653"/>
<path d="M481.429 37.1851C480.579 37.1851 479.93 37.8698 479.93 38.7621C479.93 39.6233 480.589 40.3184 481.429 40.3184C482.268 40.3184 482.948 39.6129 482.948 38.7621C482.948 37.8698 482.268 37.1851 481.429 37.1851Z" fill="#232653"/>
<path d="M477.301 37.1851C476.432 37.1851 475.752 37.8698 475.752 38.7621C475.752 39.6233 476.432 40.3184 477.301 40.3184C478.131 40.3184 478.8 39.6129 478.8 38.7621C478.8 37.8698 478.121 37.1851 477.301 37.1851Z" fill="#232653"/>
<path d="M493.802 32.879C494.511 32.0905 494.941 31.0841 494.941 29.756C494.941 27.0376 492.912 25.3672 490.434 25.3672C488.025 25.3672 485.966 26.9961 485.966 29.756C485.966 31.0737 486.386 32.1009 487.105 32.879C487.015 32.879 483.807 32.879 483.847 32.879C482.638 32.879 481.458 32.6404 480.589 32.1735V24.5994H478.07V32.1735C477.18 32.63 476.021 32.879 474.792 32.879C473.582 32.879 472.403 32.6404 471.533 32.1735V24.5994H469.015V32.1735C468.125 32.63 466.966 32.879 465.736 32.879C465.636 32.879 462.318 32.879 462.518 32.879V25.5851C461.589 25.0352 459.809 24.3815 457.881 24.3815C454.412 24.3815 452.104 26.5292 452.104 29.9843C452.104 33.4082 454.492 35.587 458.17 35.587H465.956C467.635 35.5455 469.115 35.0578 470.244 34.3834C473.113 36.0643 476.711 35.9294 479.299 34.3834C480.449 35.0578 481.918 35.5455 483.577 35.587C493.062 35.587 490.633 35.587 499.719 35.587V30.1606C499.719 23.5308 495.781 21.0303 490.833 21.0303C489.844 21.0303 488.954 21.1133 488.185 21.2274V23.6449C488.884 23.51 489.794 23.4062 490.763 23.4062C494.062 23.4062 497.19 24.9626 497.19 30.0361V32.8894L493.802 32.879ZM460.019 32.879H457.841C455.981 32.879 454.622 31.8933 454.622 29.8909C454.622 27.8054 456.041 26.8405 457.711 26.8405C458.54 26.8405 459.38 27.0376 460.019 27.3904V32.879ZM490.434 32.879C489.014 32.6611 488.255 31.6028 488.255 30.088C488.255 28.6355 489.204 27.712 490.434 27.712C491.683 27.712 492.612 28.6355 492.612 30.088C492.612 31.6132 491.893 32.6611 490.434 32.879Z" fill="#232653"/>
<path d="M5.68671 39.759L5.17697 39.5204C5.05703 39.7694 4.93709 40.0184 4.82715 40.2674L5.29691 40.5164C5.42684 40.257 5.55677 40.008 5.68671 39.759Z" fill="#49C1ED"/>
<path d="M5.46753 32.5378L4.67794 32.0087C4.55801 32.1954 4.43807 32.3718 4.32812 32.5586L5.06774 33.0773C5.19767 32.8906 5.3376 32.7142 5.46753 32.5378Z" fill="#49C1ED"/>
<path d="M5.31762 36.2833L4.84787 36.0135C4.72793 36.2211 4.61798 36.4286 4.49805 36.6465L4.92782 36.9162C5.05776 36.688 5.18769 36.4804 5.31762 36.2833Z" fill="#49C1ED"/>
<path d="M7.10667 37.2998L6.49699 36.9574C6.36706 37.1857 6.24712 37.4035 6.11719 37.6318L6.68689 37.9846C6.83681 37.7563 6.96675 37.528 7.10667 37.2998Z" fill="#49C1ED"/>
<path d="M6.20781 43.266L5.88747 43.1415C5.79738 43.3801 5.70728 43.6187 5.61719 43.8678L5.88747 43.9923C5.99759 43.7536 6.09769 43.5046 6.20781 43.266Z" fill="#49C1ED"/>
<path d="M6.14648 33.8241L6.70619 34.2183C6.84612 34.0316 6.98605 33.8344 7.12597 33.6477L6.52629 33.243C6.39635 33.4402 6.26642 33.6373 6.14648 33.8241Z" fill="#49C1ED"/>
<path d="M2.93874 34.9139C2.8288 35.1007 2.72885 35.2978 2.62891 35.495L3.26857 35.8789C3.38851 35.6817 3.49845 35.495 3.61839 35.2978L2.93874 34.9139Z" fill="#49C1ED"/>
<path d="M7.51572 29.9232L6.63617 29.2177C6.45626 29.4563 6.28635 29.6845 6.10645 29.9232L6.94601 30.5976C7.03596 30.4835 7.12592 30.3589 7.22587 30.2448C7.31582 30.1411 7.41577 30.0373 7.51572 29.9232Z" fill="#49C1ED"/>
<path d="M4.34819 42.5398L3.9584 42.3842C3.87844 42.5917 3.79848 42.7992 3.72852 43.0067L4.07833 43.1623C4.15829 42.9548 4.24825 42.7473 4.34819 42.5398Z" fill="#49C1ED"/>
<path d="M12.134 25.2438L11.1045 24.1337C10.7847 24.4449 10.4749 24.7562 10.165 25.0778L11.1545 26.1154C11.4744 25.8249 11.8042 25.5344 12.134 25.2438Z" fill="#49C1ED"/>
<path d="M10.1151 33.1498C10.315 32.9112 10.5149 32.6829 10.7148 32.4547L9.95521 31.8529C9.76531 32.0915 9.57541 32.3302 9.39551 32.5688L10.1151 33.1498Z" fill="#49C1ED"/>
<path d="M10.5145 29.6955C10.7644 29.4361 11.0242 29.1767 11.2941 28.9277L10.4745 28.1703C10.2246 28.44 9.99476 28.7202 9.75488 29.0003L10.5145 29.6955Z" fill="#49C1ED"/>
<path d="M9.34473 36.0759L10.0743 36.5843C10.2243 36.3664 10.3842 36.1589 10.5341 35.9514L9.75451 35.4222C9.62458 35.6505 9.48465 35.858 9.34473 36.0759Z" fill="#49C1ED"/>
<path d="M8.82525 34.7998L8.12561 34.3329C7.98568 34.5404 7.84575 34.7375 7.71582 34.945L8.37548 35.4119C8.5254 35.2044 8.67533 34.9969 8.82525 34.7998Z" fill="#49C1ED"/>
<path d="M8.40593 30.6283C8.30598 30.7528 8.20603 30.8773 8.10609 31.0122C8.02613 31.1159 7.94617 31.2301 7.86621 31.3442L8.53586 31.8837C8.72577 31.6555 8.92566 31.4272 9.12556 31.1989L8.40593 30.6283Z" fill="#49C1ED"/>
<path d="M3.80809 38.8667L3.45828 38.6903C3.34833 38.9186 3.25838 39.1468 3.14844 39.3751L3.45828 39.5411C3.56822 39.3128 3.68816 39.0846 3.80809 38.8667Z" fill="#49C1ED"/>
<path d="M8.06543 27.4439L8.98495 28.2843C9.23482 28.0146 9.48469 27.7448 9.74456 27.4854L8.78506 26.5931C8.52519 26.8733 8.29531 27.1638 8.06543 27.4439Z" fill="#49C1ED"/>
<path d="M8.90567 38.3275L8.25601 37.954C8.12608 38.203 7.99614 38.452 7.86621 38.701L8.4559 39.0642C8.59583 38.8048 8.74575 38.5661 8.90567 38.3275Z" fill="#49C1ED"/>
<path d="M7.52579 40.6413L7.02606 40.4027C6.89612 40.6828 6.77619 40.9526 6.65625 41.2327L7.09602 41.461C7.23595 41.1809 7.37587 40.9111 7.52579 40.6413Z" fill="#49C1ED"/>
<path d="M15.372 28.7401C15.0721 29.0202 14.7723 29.3108 14.4824 29.6013L15.342 30.4936C15.6318 30.203 15.9217 29.9229 16.2215 29.6428L15.372 28.7401Z" fill="#49C1ED"/>
<path d="M16.4419 25.4203C16.0621 25.7212 15.6823 26.0221 15.3125 26.3333L17.2815 28.6782C17.6313 28.3773 17.9811 28.0764 18.3409 27.7963L16.4419 25.4203Z" fill="#49C1ED"/>
<path d="M2.39944 41.7718L2.18922 41.6888C2.11915 41.8652 2.05909 42.0416 1.99902 42.218L2.17921 42.301C2.23927 42.1246 2.31936 41.9482 2.39944 41.7718Z" fill="#49C1ED"/>
<path d="M16.2415 19.766C15.7618 20.1188 15.282 20.4819 14.8223 20.845L15.9117 22.3287C16.3815 22.0071 16.8712 21.6854 17.3509 21.3846L16.2415 19.766Z" fill="#49C1ED"/>
<path d="M13.3231 30.8055C13.0833 31.0753 12.8434 31.3451 12.6035 31.6148L13.4931 32.4345C13.523 32.4034 13.543 32.3722 13.573 32.3515C13.7829 32.1128 14.0028 31.8742 14.2127 31.6356L13.3231 30.8055Z" fill="#49C1ED"/>
<path d="M19.0397 17.8978C18.47 18.2506 17.9103 18.6241 17.3506 18.9976L21.5384 25.4823C22.0082 25.171 22.4979 24.8805 22.9877 24.59L19.0397 17.8978Z" fill="#49C1ED"/>
<path d="M41.5685 11.6625C34.872 11.6625 28.5053 13.1669 22.7783 15.8749L26.2365 22.8783C30.9241 20.7202 36.1114 19.5167 41.5685 19.5167C46.1761 19.5167 50.5938 20.3675 54.6717 21.9341L57.2903 14.5572C52.4029 12.6896 47.1056 11.6625 41.5685 11.6625Z" fill="#49C1ED"/>
<path d="M21.989 16.2592C21.3193 16.5912 20.6597 16.9439 20 17.3071L23.838 24.0926C24.3777 23.7917 24.9374 23.5012 25.4971 23.2314L21.989 16.2592Z" fill="#49C1ED"/>
<path d="M17.681 21.8715C17.2113 22.1931 16.7515 22.5251 16.3018 22.8675L19.3502 27.0073C19.7599 26.696 20.1797 26.4055 20.5995 26.115L17.681 21.8715Z" fill="#49C1ED"/>
<path d="M0.430447 41.513C0.490509 41.3677 0.550572 41.2225 0.610634 41.0772L0.160166 40.9008C0.110114 41.0461 0.0600623 41.181 0 41.3262L0.430447 41.513Z" fill="#49C1ED"/>
<path d="M11.9435 29.5292C11.6936 29.7989 11.4537 30.0583 11.2139 30.3385L12.0035 31.0647C12.2533 30.8054 12.5132 30.546 12.7731 30.297L11.9435 29.5292Z" fill="#49C1ED"/>
<path d="M10.8945 33.783L11.7241 34.4471C11.924 34.2084 12.1239 33.9698 12.3238 33.7312L11.4442 33.036C11.2643 33.285 11.0744 33.534 10.8945 33.783Z" fill="#49C1ED"/>
<path d="M1.21973 38.3585L1.74945 38.6386C1.84939 38.4311 1.94934 38.234 2.05928 38.0265L1.48958 37.7567C1.39963 37.9538 1.30968 38.1614 1.21973 38.3585Z" fill="#49C1ED"/>
<path d="M15.1221 23.7811C14.7323 24.0924 14.3525 24.414 13.9727 24.746L14.9022 25.8458C15.292 25.5553 15.6918 25.2648 16.0916 24.9847L15.1221 23.7811Z" fill="#49C1ED"/>
<path d="M12.7137 25.8768C12.4039 26.1777 12.094 26.4786 11.7842 26.7795L12.6337 27.6718C12.9536 27.3916 13.2834 27.1115 13.6132 26.8417L12.7137 25.8768Z" fill="#49C1ED"/>
<path d="M14.9824 28.3258L14.1129 27.392C13.803 27.6721 13.4932 27.9626 13.1934 28.2635L14.0329 29.1454C14.3428 28.8549 14.6626 28.5851 14.9824 28.3258Z" fill="#49C1ED"/>
<path d="M14.6727 23.2105L13.5932 21.8617C13.1934 22.1937 12.8036 22.5465 12.4238 22.8889L13.4633 24.1339C13.8631 23.8227 14.2729 23.5114 14.6727 23.2105Z" fill="#49C1ED"/>
<path d="M68.5745 96.3882L67.8348 95.3715C67.535 95.579 67.2452 95.7968 66.9453 96.0044L67.7149 97.0627C68.0048 96.8448 68.2946 96.6165 68.5745 96.3882Z" fill="#7C8BC5"/>
<path d="M67.2153 94.5102L66.6056 93.6698C66.3057 93.8773 66.0059 94.0744 65.7061 94.2716L66.3657 95.1846C66.6456 94.9667 66.9254 94.7385 67.2153 94.5102Z" fill="#7C8BC5"/>
<path d="M68.9438 87.6728L68.3041 86.9984C68.1142 87.1748 67.9243 87.3408 67.7344 87.5068L68.424 88.2123C68.6039 88.036 68.7738 87.8596 68.9438 87.6728Z" fill="#7C8BC5"/>
<path d="M65.1665 93.5453C65.4563 93.3378 65.7462 93.1199 66.036 92.9021L65.4064 92.0409C65.1065 92.2484 64.8167 92.4455 64.5068 92.6323L65.1665 93.5453Z" fill="#7C8BC5"/>
<path d="M66.0758 98.266L65.3062 97.0521C64.9364 97.2804 64.5566 97.4983 64.1768 97.7162L64.9763 99.0027C65.3362 98.7641 65.706 98.5254 66.0758 98.266Z" fill="#7C8BC5"/>
<path d="M70.9433 94.3338L70.2536 93.5038C70.1137 93.6179 69.9838 93.7424 69.8439 93.8462C69.7539 93.9188 69.6639 93.9811 69.584 94.0537L70.3036 94.9045C70.5135 94.7177 70.7334 94.531 70.9433 94.3338Z" fill="#7C8BC5"/>
<path d="M69.1237 92.9329C69.2536 92.8188 69.3735 92.7047 69.4935 92.5905L68.9438 91.9369C68.7139 92.1236 68.484 92.3 68.2441 92.4868L68.8338 93.1819C68.9238 93.0886 69.0237 93.0159 69.1237 92.9329Z" fill="#7C8BC5"/>
<path d="M70.8829 85.4316L70.3332 84.9232C70.1432 85.1307 69.9633 85.3382 69.7734 85.5354L70.3731 86.0645C70.553 85.857 70.713 85.6391 70.8829 85.4316Z" fill="#7C8BC5"/>
<path d="M70.2933 89.0943L69.7536 88.5341C69.5737 88.7001 69.3938 88.8661 69.2139 89.0217L69.7836 89.6027C69.9635 89.4367 70.1334 89.2707 70.2933 89.0943Z" fill="#7C8BC5"/>
<path d="M71.6328 90.5052L71.1631 90.0072C70.9932 90.1628 70.8232 90.3185 70.6533 90.4741L71.1631 90.9929C71.313 90.8269 71.4829 90.6712 71.6328 90.5052Z" fill="#7C8BC5"/>
<path d="M65.5859 89.3225L66.3255 90.2044C66.5554 90.0073 66.7753 89.7997 67.0052 89.6026L66.2956 88.7518C66.0557 88.9386 65.8258 89.1357 65.5859 89.3225Z" fill="#7C8BC5"/>
<path d="M62.2772 97.8506L61.5776 96.5848C61.1378 96.7923 60.688 96.9999 60.2383 97.197L60.9579 98.5769C61.3977 98.3383 61.8375 98.0997 62.2772 97.8506Z" fill="#7C8BC5"/>
<path d="M58.29 100.456L59.0696 102.271C59.6193 102.022 60.1591 101.763 60.6888 101.483L59.8992 99.8124C59.3695 100.041 58.8298 100.259 58.29 100.456Z" fill="#7C8BC5"/>
<path d="M52.413 96.4921C51.8133 96.6788 51.2037 96.8552 50.584 97.0108L52.6929 104.564C53.4325 104.367 54.1621 104.16 54.8817 103.931L52.413 96.4921Z" fill="#7C8BC5"/>
<path d="M63.7071 94.5407L63.0574 93.5135C62.6976 93.7211 62.3278 93.9286 61.958 94.1153L62.6277 95.2047C62.9975 94.9972 63.3573 94.769 63.7071 94.5407Z" fill="#7C8BC5"/>
<path d="M68.2349 91.076L67.6452 90.3705C67.4153 90.5572 67.1754 90.744 66.9355 90.9307L67.5552 91.6674C67.7851 91.4703 68.015 91.2731 68.2349 91.076Z" fill="#7C8BC5"/>
<path d="M64.8067 96.2739L64.137 95.226C63.7672 95.4438 63.3974 95.6514 63.0176 95.8485L63.7172 96.9794C64.087 96.7511 64.4468 96.5125 64.8067 96.2739Z" fill="#7C8BC5"/>
<path d="M63.4372 99.9781L62.6476 98.5463C62.1978 98.7745 61.7381 99.0028 61.2783 99.2103L62.0779 100.756C62.5377 100.497 62.9974 100.248 63.4372 99.9781Z" fill="#7C8BC5"/>
<path d="M61.6675 93.6385C62.0173 93.4206 62.3671 93.2027 62.7169 92.9641L62.0373 91.8954C61.6975 92.1236 61.3576 92.3415 61.0078 92.5594L61.6675 93.6385Z" fill="#7C8BC5"/>
<path d="M78.3789 84.5704L78.7793 84.8298C78.8494 84.7157 78.9195 84.6015 78.9896 84.4874L78.6192 84.2177C78.5391 84.3318 78.459 84.4563 78.3789 84.5704Z" fill="#7C8BC5"/>
<path d="M76.9001 87.6103C77.0201 87.4443 77.14 87.2783 77.2599 87.1123L76.8002 86.7284C76.6702 86.8944 76.5403 87.0708 76.4004 87.2368L76.9001 87.6103Z" fill="#7C8BC5"/>
<path d="M64.0668 92.0198C64.3566 91.8123 64.6365 91.5944 64.9163 91.3662L64.1867 90.3597C64.1167 90.4116 64.0568 90.4635 63.9868 90.505C63.7669 90.671 63.547 90.8266 63.3271 90.9926L64.0668 92.0198Z" fill="#7C8BC5"/>
<path d="M77.2203 83.2009L77.0601 83.0868C76.96 83.232 76.8599 83.3773 76.7598 83.5226L76.95 83.6471C77.0501 83.5018 77.1402 83.3462 77.2203 83.2009Z" fill="#7C8BC5"/>
<path d="M59.9691 96.6786C60.4088 96.4608 60.8386 96.2429 61.2584 96.0042L59.7692 93.2963C59.3694 93.5245 58.9596 93.7424 58.5498 93.9603L59.9691 96.6786Z" fill="#7C8BC5"/>
<path d="M72.3525 86.791L71.8928 86.3656C71.7229 86.5524 71.553 86.7495 71.373 86.9259L71.8728 87.3616C72.0327 87.1749 72.1926 86.9881 72.3525 86.791Z" fill="#7C8BC5"/>
<path d="M55.9404 103.568C56.5801 103.329 57.2098 103.08 57.8395 102.821L54.961 95.6097C54.4312 95.8172 53.8815 96.0144 53.3418 96.2011L55.9404 103.568Z" fill="#7C8BC5"/>
<path d="M58.0597 99.9265C58.5894 99.7086 59.1091 99.4699 59.6289 99.2209L57.42 94.5209C56.9503 94.7491 56.4805 94.9566 56.0107 95.1641L58.0597 99.9265Z" fill="#7C8BC5"/>
<path d="M49.7841 97.1973C47.1454 97.7991 44.3969 98.1311 41.5783 98.1311C34.3021 98.1311 27.5057 96.0041 21.7287 92.3001L17.7607 98.9923C24.6871 103.423 32.8429 105.985 41.5783 105.985C45.1065 105.985 48.5447 105.56 51.843 104.771L49.7841 97.1973Z" fill="#7C8BC5"/>
<path d="M73.7617 88.1084L73.3919 87.766C73.2319 87.9424 73.072 88.1084 72.9121 88.2848L73.3219 88.6375C73.4618 88.4611 73.6117 88.2848 73.7617 88.1084Z" fill="#7C8BC5"/>
<path d="M73.6315 85.1412C73.7914 84.9337 73.9413 84.7158 74.0912 84.5083L73.7214 84.2074C73.5515 84.4149 73.3816 84.6328 73.2217 84.8403L73.6315 85.1412Z" fill="#7C8BC5"/>
<path d="M73.1619 92.1237L72.5423 91.4701C72.3823 91.6153 72.2224 91.7606 72.0625 91.9059L72.7222 92.5803C72.8721 92.4246 73.012 92.2794 73.1619 92.1237Z" fill="#7C8BC5"/>
<path d="M72.5327 83.2218L72.1029 82.869C71.913 83.0973 71.7231 83.3255 71.5332 83.5538L72.0329 83.9273C72.2028 83.699 72.3728 83.4604 72.5327 83.2218Z" fill="#7C8BC5"/>
<path d="M75.6802 82.0803L75.4204 81.8832C75.3004 82.0596 75.1805 82.2256 75.0605 82.4019L75.3604 82.5991C75.4603 82.4331 75.5703 82.2567 75.6802 82.0803Z" fill="#7C8BC5"/>
<path d="M74.3916 89.5816L74.9813 90.09C75.1112 89.9344 75.2412 89.7684 75.3711 89.6024L74.8314 89.1044C74.6815 89.26 74.5415 89.4156 74.3916 89.5816Z" fill="#7C8BC5"/>
<path d="M75.1604 86.2924C75.3004 86.1057 75.4303 85.9085 75.5702 85.7114L75.3004 85.4935C75.1504 85.6803 75.0005 85.867 74.8506 86.0538L75.1604 86.2924Z" fill="#7C8BC5"/>
<path d="M73.7313 80.6693C73.5914 80.8768 73.4614 81.074 73.3115 81.2815L73.6514 81.4994C73.7813 81.2918 73.9012 81.0947 74.0212 80.8872L73.7313 80.6693Z" fill="#7C8BC5"/>
<path d="M46.9259 64.38C45.5566 65.8014 43.6676 66.6833 41.5686 66.6833C37.3908 66.6833 34.0026 63.1661 34.0026 58.8291C34.0026 54.4922 37.3908 50.9749 41.5686 50.9749C43.6576 50.9749 45.5566 51.8568 46.9259 53.2783L52.2831 47.717C49.5445 44.8742 45.7565 43.1104 41.5786 43.1104C33.213 43.1104 26.4365 50.1449 26.4365 58.8291C26.4365 67.5134 33.213 74.5479 41.5786 74.5479C45.7565 74.5479 49.5445 72.7841 52.2831 69.9412L46.9259 64.38Z" fill="#232653"/>
<path d="M110.303 64.3799C108.934 65.8013 107.045 66.6832 104.946 66.6832C100.768 66.6832 97.3795 63.1659 97.3795 58.829C97.3795 54.4921 100.768 50.9748 104.946 50.9748C107.035 50.9748 108.934 51.8567 110.303 53.2781L115.66 47.7169C112.921 44.8741 109.133 43.1102 104.956 43.1102C96.5899 43.1102 89.8135 50.1448 89.8135 58.829C89.8135 67.5132 96.5899 74.5478 104.956 74.5478C109.133 74.5478 112.921 72.784 115.66 69.9411L110.303 64.3799Z" fill="#232653"/>
<path d="M63.3473 44.6766H55.7812V72.9704H63.3473V44.6766Z" fill="#232653"/>
<path d="M87.8943 44.6766H67.6748V52.5412H78.3393L74.0015 55.1143V72.9704H81.5676V52.5412H87.8943V44.6766Z" fill="#232653"/>
<path d="M26.4962 76.7278C26.2264 76.5202 25.9665 76.3024 25.7066 76.0741L24.957 76.8834C25.2069 77.1428 25.4568 77.3918 25.7166 77.6408L26.4962 76.7278Z" fill="#4D4193"/>
<path d="M24.0879 74.5385L23.4482 75.1091C23.6681 75.3996 23.898 75.6797 24.1379 75.9599L24.8475 75.2855C24.5877 75.0469 24.3378 74.7978 24.0879 74.5385Z" fill="#4D4193"/>
<path d="M27.2064 79.7782C26.8965 79.5914 26.5867 79.3943 26.2868 79.1971L25.6172 80.0791C25.917 80.3281 26.2169 80.5667 26.5167 80.795L27.2064 79.7782Z" fill="#4D4193"/>
<path d="M21.5289 74.8707C21.319 74.6217 21.1191 74.3623 20.9192 74.1029L20.6094 74.3312C20.7893 74.6113 20.9692 74.8914 21.1591 75.1612L21.5289 74.8707Z" fill="#4D4193"/>
<path d="M25.107 78.3571C24.8171 78.1289 24.5273 77.9006 24.2474 77.662L23.6777 78.2845C23.9476 78.5646 24.2175 78.8344 24.4873 79.0938L25.107 78.3571Z" fill="#4D4193"/>
<path d="M22.7684 77.2778L23.2882 76.7797C23.0183 76.5204 22.7585 76.2506 22.4986 75.9808L22.0488 76.3855C22.2787 76.6967 22.5186 76.9873 22.7684 77.2778Z" fill="#4D4193"/>
<path d="M54.1625 78.4608C50.5544 80.9509 46.2266 82.4139 41.5691 82.4139C40.1698 82.4139 38.7905 82.279 37.4612 82.03L36.002 89.7389C37.811 90.0917 39.67 90.2784 41.5691 90.2784C47.7758 90.2784 53.5528 88.3382 58.3603 85.0077L54.1625 78.4608Z" fill="#4D4193"/>
<path d="M17.8411 76.4063L17.4014 76.7383C17.5913 77.0392 17.7912 77.3297 17.9911 77.6202L18.4708 77.2467C18.2609 76.9666 18.051 76.6968 17.8411 76.4063Z" fill="#4D4193"/>
<path d="M35.2725 81.4901L33.1836 88.9916C33.6933 89.1576 34.2131 89.3236 34.7428 89.4584C34.9327 89.4999 35.1226 89.5518 35.3125 89.5933L36.8317 81.8948C36.302 81.7702 35.7822 81.6354 35.2725 81.4901Z" fill="#4D4193"/>
<path d="M19.6098 78.5844L19.0801 79.0616C19.3399 79.3936 19.6098 79.7153 19.8897 80.0369L20.4694 79.487C20.1695 79.1965 19.8797 78.8956 19.6098 78.5844Z" fill="#4D4193"/>
<path d="M26.7666 78.5644C27.0365 78.7927 27.3163 79.0002 27.5962 79.2181L28.3758 78.0664C28.0959 77.89 27.826 77.7136 27.5562 77.5165L26.7666 78.5644Z" fill="#4D4193"/>
<path d="M28.7359 82.2471L29.4455 80.9294C29.0657 80.7634 28.6959 80.587 28.3261 80.4003L27.6064 81.5623C27.9763 81.8009 28.3561 82.0292 28.7359 82.2471Z" fill="#4D4193"/>
<path d="M19.9998 76.0634C19.7899 75.8041 19.58 75.5343 19.3702 75.2645L19.0703 75.4928C19.2602 75.7833 19.4501 76.0634 19.64 76.3436L19.9998 76.0634Z" fill="#4D4193"/>
<path d="M23.2081 73.5632C22.9982 73.3246 22.7983 73.0755 22.6084 72.8265L22.1387 73.1793C22.3086 73.4594 22.4785 73.7292 22.6584 73.9886L23.2081 73.5632Z" fill="#4D4193"/>
<path d="M30.1146 85.8791C29.5949 85.682 29.0851 85.4641 28.5754 85.2255L27.8857 86.6365C28.4055 86.927 28.9252 87.2176 29.4649 87.4769L30.1146 85.8791Z" fill="#4D4193"/>
<path d="M32.8933 86.7712C32.2937 86.6156 31.704 86.4392 31.1143 86.2421L30.4746 87.9436C31.0843 88.2134 31.694 88.4624 32.3236 88.6907L32.8933 86.7712Z" fill="#4D4193"/>
<path d="M30.9539 83.8038C30.4642 83.6482 29.9844 83.4718 29.5247 83.285L28.875 84.6131C29.3548 84.8725 29.8345 85.1111 30.3342 85.3394L30.9539 83.8038Z" fill="#4D4193"/>
<path d="M34.5223 81.2513C34.0725 81.0957 33.6227 80.9297 33.183 80.7533L31.2939 85.7646C31.8537 85.9929 32.4234 86.2004 33.0031 86.3975L34.5223 81.2513Z" fill="#4D4193"/>
<path d="M28.6152 79.9236C28.9551 80.1415 29.2949 80.349 29.6447 80.5462L30.3044 79.3115C29.9845 79.1247 29.6647 78.9172 29.3549 78.7201L28.6152 79.9236Z" fill="#4D4193"/>
<path d="M21.8792 78.1285C21.5994 77.8484 21.3195 77.5682 21.0597 77.2777L20.6299 77.6616C20.8798 77.9729 21.1396 78.2841 21.3995 78.585L21.8792 78.1285Z" fill="#4D4193"/>
<path d="M29.7549 82.7971C30.1947 83.015 30.6544 83.2225 31.1042 83.4196L32.3435 80.3796C31.9637 80.2032 31.5839 80.0165 31.2141 79.809L29.7549 82.7971Z" fill="#4D4193"/>
<path d="M24.9071 83.1706C24.7371 83.0565 24.5572 82.9424 24.3873 82.8282C24.2074 82.7037 24.0275 82.5585 23.8476 82.434L23.168 83.3366C23.5178 83.6271 23.8676 83.9176 24.2174 84.1978L24.9071 83.1706Z" fill="#4D4193"/>
<path d="M23.8279 79.8614C23.5181 79.6124 23.2182 79.353 22.9184 79.0936L22.3887 79.6746C22.6685 79.9652 22.9584 80.2557 23.2582 80.5358L23.8279 79.8614Z" fill="#4D4193"/>
<path d="M28.4457 82.7972C28.0359 82.6001 27.6361 82.4029 27.2363 82.1747L26.5967 83.2122C26.9965 83.482 27.3963 83.7414 27.8061 83.9904L28.4457 82.7972Z" fill="#4D4193"/>
<path d="M22.5291 81.3963C22.1993 81.1266 21.8795 80.8464 21.5696 80.5663L20.96 81.2303C21.2598 81.5519 21.5696 81.8528 21.8895 82.1641L22.5291 81.3963Z" fill="#4D4193"/>
<path d="M27.4365 84.6754C26.9967 84.4471 26.5669 84.2085 26.1371 83.9491L25.4375 85.0904C25.8673 85.3913 26.3071 85.6818 26.7468 85.9619L27.4365 84.6754Z" fill="#4D4193"/>
<path d="M25.4375 82.3821L26.0572 81.4691C25.7273 81.2616 25.3975 81.0333 25.0677 80.8051L24.458 81.604C24.6179 81.7388 24.7778 81.8737 24.9477 82.0086C25.1077 82.1331 25.2776 82.2576 25.4375 82.3821Z" fill="#4D4193"/>
<path d="M38.2598 32.8798L38.1798 32.2469C37.7801 32.2884 37.3803 32.3403 36.9805 32.4026L37.0904 33.1496C37.4902 33.0562 37.87 32.9629 38.2598 32.8798Z" fill="#2A4B9B"/>
<path d="M38.5299 35.0383L38.4199 34.1771C38.0401 34.2186 37.6603 34.2705 37.2705 34.3224L37.4204 35.2977C37.7902 35.2043 38.1601 35.1213 38.5299 35.0383Z" fill="#2A4B9B"/>
<path d="M22.6582 34.364L23.8876 35.9203C24.3273 35.5053 24.7771 35.111 25.2369 34.7375L24.2074 33.2123C23.6777 33.5754 23.1679 33.9593 22.6582 34.364Z" fill="#2A4B9B"/>
<path d="M28.4457 35.0174L27.726 33.6893C27.2763 33.9591 26.8265 34.2392 26.3867 34.5297L27.2763 35.9201C27.6461 35.6088 28.0359 35.3079 28.4457 35.0174Z" fill="#2A4B9B"/>
<path d="M36.3711 28.3564L36.501 29.1761C36.9208 29.0827 37.3506 28.9893 37.7804 28.9167L37.6904 28.1801C37.2506 28.2319 36.8109 28.2838 36.3711 28.3564Z" fill="#2A4B9B"/>
<path d="M29.7447 31.6973L29.2049 30.4315C28.7352 30.639 28.2654 30.8569 27.8057 31.0852L28.4753 32.4236C28.8851 32.1746 29.3149 31.9256 29.7447 31.6973Z" fill="#2A4B9B"/>
<path d="M27.4053 33.1087L26.6357 31.6976C26.136 31.9778 25.6362 32.2787 25.1465 32.5899L26.076 34.0529C26.5158 33.7312 26.9555 33.4096 27.4053 33.1087Z" fill="#2A4B9B"/>
<path d="M39.4395 28.0559L39.4694 28.6888C39.8492 28.6473 40.239 28.6162 40.6188 28.5851L40.5989 28.0248C40.219 28.0248 39.8293 28.0352 39.4395 28.0559Z" fill="#2A4B9B"/>
<path d="M40.699 30.5459L40.689 30.162C40.3092 30.162 39.9294 30.1724 39.5596 30.1931L39.5896 30.66C39.9494 30.6081 40.3192 30.577 40.699 30.5459Z" fill="#2A4B9B"/>
<path d="M21.9391 34.9344C21.5893 35.2353 21.2394 35.5362 20.8996 35.8475C20.7197 36.0135 20.5498 36.1899 20.3799 36.3663L25.7071 41.9482C26.0669 41.5851 26.4267 41.2427 26.8065 40.9003L21.9391 34.9344Z" fill="#2A4B9B"/>
<path d="M40.8492 34.6753L40.8292 34.0735C40.4694 34.0631 40.1196 34.0735 39.7598 34.0839L39.7997 34.8102C40.1496 34.7583 40.4994 34.7168 40.8492 34.6753Z" fill="#2A4B9B"/>
<path d="M38.0205 30.8989L37.9505 30.3075C37.5307 30.349 37.111 30.4112 36.7012 30.4735L36.8011 31.1687C37.2009 31.0649 37.6107 30.9819 38.0205 30.8989Z" fill="#2A4B9B"/>
<path d="M40.7686 32.5177L40.7586 32.1234C40.3888 32.1234 40.029 32.1234 39.6592 32.1442L39.6892 32.6422C40.049 32.5903 40.4088 32.5488 40.7686 32.5177Z" fill="#2A4B9B"/>
<path d="M35.0217 29.56L34.8218 28.6366C34.382 28.73 33.9522 28.8337 33.5225 28.9375L33.7823 29.9439C34.1921 29.809 34.6119 29.6845 35.0217 29.56Z" fill="#2A4B9B"/>
<path d="M35.8811 33.5241L35.6912 32.663C35.3114 32.746 34.9316 32.8393 34.5518 32.9535L34.8016 33.908C35.1614 33.7628 35.5213 33.6383 35.8811 33.5241Z" fill="#2A4B9B"/>
<path d="M36.3313 35.6198L36.1014 34.5511C35.7416 34.6238 35.3918 34.7172 35.042 34.8105L35.3418 35.9622C35.6617 35.8377 36.0015 35.7236 36.3313 35.6198Z" fill="#2A4B9B"/>
<path d="M28.6947 35.4847C28.2849 35.7338 27.8851 36.0035 27.4854 36.2733L29.2344 39.0228C29.5743 38.7945 29.9141 38.5766 30.2639 38.3691L28.6947 35.4847Z" fill="#2A4B9B"/>
<path d="M30.5738 33.648L30.074 32.4652C29.6443 32.6623 29.2245 32.8699 28.8047 33.0877L29.4244 34.3432C29.8042 34.1045 30.184 33.8763 30.5738 33.648Z" fill="#2A4B9B"/>
<path d="M31.6032 36.0653C31.2434 36.2313 30.8935 36.4077 30.5537 36.5945L31.1834 37.8603C31.5032 37.6839 31.833 37.5179 32.1529 37.3622L31.6032 36.0653Z" fill="#2A4B9B"/>
<path d="M19.8797 36.8954C14.5625 42.5604 11.2842 50.3005 11.2842 58.8291H18.8602C18.8602 52.4586 21.299 46.6691 25.2569 42.4256L19.8797 36.8954Z" fill="#2A4B9B"/>
<path d="M25.5065 35.142C25.0367 35.4844 24.567 35.8371 24.1172 36.221L27.4055 40.4023C27.7553 40.1118 28.1151 39.8317 28.4749 39.5619L25.5065 35.142Z" fill="#2A4B9B"/>
<path d="M31.9436 30.6495C32.0435 30.608 32.1435 30.5665 32.2434 30.5353L31.8936 29.4252C31.4638 29.5601 31.034 29.7157 30.6143 29.8713L31.054 31.0541C31.3439 30.9089 31.6437 30.774 31.9436 30.6495Z" fill="#2A4B9B"/>
<path d="M31.3842 35.5672L30.8545 34.3221C30.4647 34.5089 30.0849 34.6957 29.7051 34.9032L30.3547 36.2208C30.6946 35.9926 31.0344 35.7747 31.3842 35.5672Z" fill="#2A4B9B"/>
<path d="M32.8632 32.4964L32.5434 31.5004C32.4535 31.5315 32.3635 31.5522 32.2736 31.5834C31.9737 31.6871 31.6739 31.8013 31.374 31.9258L31.7738 33.0048C32.1336 32.8284 32.4934 32.6624 32.8632 32.4964Z" fill="#2A4B9B"/>
<path d="M34.1127 36.4598L33.7229 35.2147C33.3931 35.3289 33.0632 35.443 32.7334 35.5779L33.2231 36.8852C33.513 36.7295 33.8128 36.5843 34.1127 36.4598Z" fill="#2A4B9B"/>
<path d="M33.4825 34.4572L33.1427 33.3885C32.7829 33.5131 32.4231 33.6479 32.0732 33.7932L32.503 34.9449C32.8228 34.7685 33.1527 34.6129 33.4825 34.4572Z" fill="#2A4B9B"/>
<path d="M35.4515 31.5316L35.2816 30.743C34.8719 30.8364 34.4721 30.9298 34.0723 31.0439L34.3021 31.9258C34.672 31.791 35.0617 31.6561 35.4515 31.5316Z" fill="#2A4B9B"/>
</svg>
