<svg width="116" height="95" viewBox="0 0 116 95" fill="none" xmlns="http://www.w3.org/2000/svg">
<path d="M5.68671 28.759L5.17697 28.5204C5.05703 28.7694 4.93709 29.0184 4.82715 29.2674L5.29691 29.5164C5.42684 29.257 5.55677 29.008 5.68671 28.759Z" fill="#49C1ED"/>
<path d="M5.46753 21.5378L4.67794 21.0087C4.55801 21.1954 4.43807 21.3718 4.32812 21.5586L5.06774 22.0773C5.19767 21.8906 5.3376 21.7142 5.46753 21.5378Z" fill="#49C1ED"/>
<path d="M5.31762 25.2833L4.84787 25.0135C4.72793 25.2211 4.61798 25.4286 4.49805 25.6465L4.92782 25.9162C5.05776 25.688 5.18769 25.4804 5.31762 25.2833Z" fill="#49C1ED"/>
<path d="M7.10667 26.2998L6.49699 25.9574C6.36706 26.1857 6.24712 26.4035 6.11719 26.6318L6.68689 26.9846C6.83681 26.7563 6.96675 26.528 7.10667 26.2998Z" fill="#49C1ED"/>
<path d="M6.20781 32.266L5.88747 32.1415C5.79738 32.3801 5.70728 32.6187 5.61719 32.8678L5.88747 32.9923C5.99759 32.7536 6.09769 32.5046 6.20781 32.266Z" fill="#49C1ED"/>
<path d="M6.14648 22.8241L6.70619 23.2183C6.84612 23.0316 6.98605 22.8344 7.12597 22.6477L6.52629 22.243C6.39635 22.4402 6.26642 22.6373 6.14648 22.8241Z" fill="#49C1ED"/>
<path d="M2.93874 23.9139C2.8288 24.1007 2.72885 24.2978 2.62891 24.495L3.26857 24.8789C3.38851 24.6817 3.49845 24.495 3.61839 24.2978L2.93874 23.9139Z" fill="#49C1ED"/>
<path d="M7.51572 18.9232L6.63617 18.2177C6.45626 18.4563 6.28635 18.6845 6.10645 18.9232L6.94601 19.5976C7.03596 19.4835 7.12592 19.3589 7.22587 19.2448C7.31582 19.1411 7.41577 19.0373 7.51572 18.9232Z" fill="#49C1ED"/>
<path d="M4.34819 31.5398L3.9584 31.3842C3.87844 31.5917 3.79848 31.7992 3.72852 32.0067L4.07833 32.1623C4.15829 31.9548 4.24825 31.7473 4.34819 31.5398Z" fill="#49C1ED"/>
<path d="M12.134 14.2438L11.1045 13.1337C10.7847 13.4449 10.4749 13.7562 10.165 14.0778L11.1545 15.1154C11.4744 14.8249 11.8042 14.5344 12.134 14.2438Z" fill="#49C1ED"/>
<path d="M10.1151 22.1498C10.315 21.9112 10.5149 21.6829 10.7148 21.4547L9.95521 20.8529C9.76531 21.0915 9.57541 21.3302 9.39551 21.5688L10.1151 22.1498Z" fill="#49C1ED"/>
<path d="M10.5145 18.6955C10.7644 18.4361 11.0242 18.1767 11.2941 17.9277L10.4745 17.1703C10.2246 17.44 9.99476 17.7202 9.75488 18.0003L10.5145 18.6955Z" fill="#49C1ED"/>
<path d="M9.34473 25.0759L10.0743 25.5843C10.2243 25.3664 10.3842 25.1589 10.5341 24.9514L9.75451 24.4222C9.62458 24.6505 9.48465 24.858 9.34473 25.0759Z" fill="#49C1ED"/>
<path d="M8.82525 23.7998L8.12561 23.3329C7.98568 23.5404 7.84575 23.7375 7.71582 23.945L8.37548 24.4119C8.5254 24.2044 8.67533 23.9969 8.82525 23.7998Z" fill="#49C1ED"/>
<path d="M8.40593 19.6283C8.30598 19.7528 8.20603 19.8773 8.10609 20.0122C8.02613 20.1159 7.94617 20.2301 7.86621 20.3442L8.53586 20.8837C8.72577 20.6555 8.92566 20.4272 9.12556 20.1989L8.40593 19.6283Z" fill="#49C1ED"/>
<path d="M3.80809 27.8667L3.45828 27.6903C3.34833 27.9186 3.25838 28.1468 3.14844 28.3751L3.45828 28.5411C3.56822 28.3128 3.68816 28.0846 3.80809 27.8667Z" fill="#49C1ED"/>
<path d="M8.06543 16.4439L8.98495 17.2843C9.23482 17.0146 9.48469 16.7448 9.74456 16.4854L8.78506 15.5931C8.52519 15.8733 8.29531 16.1638 8.06543 16.4439Z" fill="#49C1ED"/>
<path d="M8.90567 27.3275L8.25601 26.954C8.12608 27.203 7.99614 27.452 7.86621 27.701L8.4559 28.0642C8.59583 27.8048 8.74575 27.5661 8.90567 27.3275Z" fill="#49C1ED"/>
<path d="M7.5258 29.6413L7.02606 29.4027C6.89612 29.6828 6.77619 29.9526 6.65625 30.2327L7.09602 30.461C7.23595 30.1809 7.37587 29.9111 7.5258 29.6413Z" fill="#49C1ED"/>
<path d="M15.372 17.7401C15.0721 18.0202 14.7723 18.3108 14.4824 18.6013L15.342 19.4936C15.6318 19.203 15.9217 18.9229 16.2215 18.6428L15.372 17.7401Z" fill="#49C1ED"/>
<path d="M16.4419 14.4203C16.0621 14.7212 15.6823 15.0221 15.3125 15.3333L17.2815 17.6782C17.6313 17.3773 17.9811 17.0764 18.3409 16.7963L16.4419 14.4203Z" fill="#49C1ED"/>
<path d="M2.39944 30.7718L2.18922 30.6888C2.11915 30.8652 2.05909 31.0416 1.99902 31.218L2.17921 31.301C2.23927 31.1246 2.31936 30.9482 2.39944 30.7718Z" fill="#49C1ED"/>
<path d="M16.2415 8.76599C15.7618 9.11876 15.282 9.48189 14.8223 9.84503L15.9117 11.3287C16.3815 11.0071 16.8712 10.6854 17.3509 10.3846L16.2415 8.76599Z" fill="#49C1ED"/>
<path d="M13.3231 19.8055C13.0833 20.0753 12.8434 20.3451 12.6035 20.6148L13.4931 21.4345C13.523 21.4034 13.543 21.3722 13.573 21.3515C13.7829 21.1128 14.0028 20.8742 14.2127 20.6356L13.3231 19.8055Z" fill="#49C1ED"/>
<path d="M19.0397 6.89783C18.47 7.25059 17.9103 7.62411 17.3506 7.99762L21.5384 14.4823C22.0082 14.171 22.4979 13.8805 22.9877 13.59L19.0397 6.89783Z" fill="#49C1ED"/>
<path d="M41.5685 0.662476C34.872 0.662476 28.5053 2.16691 22.7783 4.8749L26.2365 11.8783C30.9241 9.72022 36.1114 8.51667 41.5685 8.51667C46.1761 8.51667 50.5938 9.36746 54.6717 10.9341L57.2903 3.55722C52.4029 1.68964 47.1056 0.662476 41.5685 0.662476Z" fill="#49C1ED"/>
<path d="M21.989 5.25916C21.3193 5.59117 20.6597 5.94393 20 6.30707L23.838 13.0926C24.3777 12.7917 24.9374 12.5012 25.4971 12.2314L21.989 5.25916Z" fill="#49C1ED"/>
<path d="M17.681 10.8715C17.2113 11.1931 16.7515 11.5251 16.3018 11.8675L19.3502 16.0073C19.7599 15.696 20.1797 15.4055 20.5995 15.115L17.681 10.8715Z" fill="#49C1ED"/>
<path d="M0.430447 30.513C0.490509 30.3677 0.550571 30.2225 0.610634 30.0772L0.160166 29.9008C0.110114 30.0461 0.0600623 30.181 0 30.3262L0.430447 30.513Z" fill="#49C1ED"/>
<path d="M11.9435 18.5292C11.6936 18.7989 11.4537 19.0583 11.2139 19.3385L12.0035 20.0647C12.2533 19.8054 12.5132 19.546 12.7731 19.297L11.9435 18.5292Z" fill="#49C1ED"/>
<path d="M10.8945 22.783L11.7241 23.4471C11.924 23.2084 12.1239 22.9698 12.3238 22.7312L11.4442 22.036C11.2643 22.285 11.0744 22.534 10.8945 22.783Z" fill="#49C1ED"/>
<path d="M1.21973 27.3585L1.74945 27.6386C1.84939 27.4311 1.94934 27.234 2.05928 27.0265L1.48958 26.7567C1.39963 26.9538 1.30968 27.1614 1.21973 27.3585Z" fill="#49C1ED"/>
<path d="M15.1221 12.7811C14.7323 13.0924 14.3525 13.414 13.9727 13.746L14.9022 14.8458C15.292 14.5553 15.6918 14.2648 16.0916 13.9847L15.1221 12.7811Z" fill="#49C1ED"/>
<path d="M12.7137 14.8768C12.4039 15.1777 12.094 15.4786 11.7842 15.7795L12.6337 16.6718C12.9536 16.3916 13.2834 16.1115 13.6132 15.8417L12.7137 14.8768Z" fill="#49C1ED"/>
<path d="M14.9824 17.3258L14.1129 16.392C13.803 16.6721 13.4932 16.9626 13.1934 17.2635L14.0329 18.1454C14.3428 17.8549 14.6626 17.5851 14.9824 17.3258Z" fill="#49C1ED"/>
<path d="M14.6727 12.2105L13.5932 10.8617C13.1934 11.1937 12.8036 11.5465 12.4238 11.8889L13.4633 13.1339C13.8631 12.8227 14.2729 12.5114 14.6727 12.2105Z" fill="#49C1ED"/>
<path d="M68.5745 85.3882L67.8348 84.3715C67.535 84.579 67.2452 84.7968 66.9453 85.0044L67.7149 86.0627C68.0048 85.8448 68.2946 85.6165 68.5745 85.3882Z" fill="#7C8BC5"/>
<path d="M67.2153 83.5102L66.6056 82.6698C66.3057 82.8773 66.0059 83.0744 65.7061 83.2716L66.3657 84.1846C66.6456 83.9667 66.9254 83.7385 67.2153 83.5102Z" fill="#7C8BC5"/>
<path d="M68.9438 76.6728L68.3041 75.9984C68.1142 76.1748 67.9243 76.3408 67.7344 76.5068L68.424 77.2123C68.6039 77.036 68.7738 76.8596 68.9438 76.6728Z" fill="#7C8BC5"/>
<path d="M65.1665 82.5453C65.4563 82.3378 65.7462 82.1199 66.036 81.9021L65.4064 81.0409C65.1065 81.2484 64.8167 81.4455 64.5068 81.6323L65.1665 82.5453Z" fill="#7C8BC5"/>
<path d="M66.0758 87.266L65.3062 86.0521C64.9364 86.2804 64.5566 86.4983 64.1768 86.7162L64.9763 88.0027C65.3362 87.7641 65.706 87.5254 66.0758 87.266Z" fill="#7C8BC5"/>
<path d="M70.9433 83.3338L70.2536 82.5038C70.1137 82.6179 69.9838 82.7424 69.8439 82.8462C69.7539 82.9188 69.6639 82.9811 69.584 83.0537L70.3036 83.9045C70.5135 83.7177 70.7334 83.531 70.9433 83.3338Z" fill="#7C8BC5"/>
<path d="M69.1237 81.9329C69.2536 81.8188 69.3735 81.7047 69.4935 81.5905L68.9438 80.9369C68.7139 81.1236 68.484 81.3 68.2441 81.4868L68.8338 82.1819C68.9238 82.0886 69.0237 82.0159 69.1237 81.9329Z" fill="#7C8BC5"/>
<path d="M70.8829 74.4316L70.3332 73.9232C70.1432 74.1307 69.9633 74.3382 69.7734 74.5354L70.3731 75.0645C70.553 74.857 70.713 74.6391 70.8829 74.4316Z" fill="#7C8BC5"/>
<path d="M70.2933 78.0943L69.7536 77.5341C69.5737 77.7001 69.3938 77.8661 69.2139 78.0217L69.7836 78.6027C69.9635 78.4367 70.1334 78.2707 70.2933 78.0943Z" fill="#7C8BC5"/>
<path d="M71.6328 79.5052L71.1631 79.0072C70.9932 79.1628 70.8232 79.3185 70.6533 79.4741L71.1631 79.9929C71.313 79.8269 71.4829 79.6712 71.6328 79.5052Z" fill="#7C8BC5"/>
<path d="M65.5859 78.3225L66.3255 79.2044C66.5554 79.0073 66.7753 78.7997 67.0052 78.6026L66.2956 77.7518C66.0557 77.9386 65.8258 78.1357 65.5859 78.3225Z" fill="#7C8BC5"/>
<path d="M62.2772 86.8506L61.5776 85.5848C61.1378 85.7923 60.688 85.9999 60.2383 86.197L60.9579 87.5769C61.3977 87.3383 61.8375 87.0997 62.2772 86.8506Z" fill="#7C8BC5"/>
<path d="M58.29 89.4556L59.0696 91.2713C59.6193 91.0223 60.1591 90.763 60.6888 90.4828L59.8992 88.8124C59.3695 89.0406 58.8298 89.2585 58.29 89.4556Z" fill="#7C8BC5"/>
<path d="M52.413 85.4921C51.8133 85.6788 51.2037 85.8552 50.584 86.0108L52.6929 93.5641C53.4325 93.367 54.1621 93.1595 54.8817 92.9313L52.413 85.4921Z" fill="#7C8BC5"/>
<path d="M63.7071 83.5407L63.0574 82.5135C62.6976 82.7211 62.3278 82.9286 61.958 83.1153L62.6277 84.2047C62.9975 83.9972 63.3573 83.769 63.7071 83.5407Z" fill="#7C8BC5"/>
<path d="M68.2349 80.076L67.6452 79.3705C67.4153 79.5572 67.1754 79.744 66.9355 79.9307L67.5552 80.6674C67.7851 80.4703 68.015 80.2731 68.2349 80.076Z" fill="#7C8BC5"/>
<path d="M64.8067 85.2739L64.137 84.226C63.7672 84.4438 63.3974 84.6514 63.0176 84.8485L63.7172 85.9794C64.087 85.7511 64.4468 85.5125 64.8067 85.2739Z" fill="#7C8BC5"/>
<path d="M63.4372 88.9781L62.6476 87.5463C62.1978 87.7745 61.7381 88.0028 61.2783 88.2103L62.0779 89.7562C62.5377 89.4968 62.9974 89.2478 63.4372 88.9781Z" fill="#7C8BC5"/>
<path d="M61.6675 82.6385C62.0173 82.4206 62.3671 82.2027 62.7169 81.9641L62.0373 80.8954C61.6975 81.1236 61.3576 81.3415 61.0078 81.5594L61.6675 82.6385Z" fill="#7C8BC5"/>
<path d="M78.3789 73.5704L78.7793 73.8298C78.8494 73.7157 78.9195 73.6015 78.9896 73.4874L78.6192 73.2177C78.5391 73.3318 78.459 73.4563 78.3789 73.5704Z" fill="#7C8BC5"/>
<path d="M76.9001 76.6103C77.0201 76.4443 77.14 76.2783 77.2599 76.1123L76.8002 75.7284C76.6702 75.8944 76.5403 76.0708 76.4004 76.2368L76.9001 76.6103Z" fill="#7C8BC5"/>
<path d="M64.0668 81.0198C64.3566 80.8123 64.6365 80.5944 64.9163 80.3662L64.1867 79.3597C64.1167 79.4116 64.0568 79.4635 63.9868 79.505C63.7669 79.671 63.547 79.8266 63.3271 79.9926L64.0668 81.0198Z" fill="#7C8BC5"/>
<path d="M77.2203 72.2009L77.0601 72.0868C76.96 72.232 76.8599 72.3773 76.7598 72.5226L76.95 72.6471C77.0501 72.5018 77.1402 72.3462 77.2203 72.2009Z" fill="#7C8BC5"/>
<path d="M59.9691 85.6786C60.4088 85.4608 60.8386 85.2429 61.2584 85.0042L59.7692 82.2963C59.3694 82.5245 58.9596 82.7424 58.5498 82.9603L59.9691 85.6786Z" fill="#7C8BC5"/>
<path d="M72.3525 75.791L71.8928 75.3656C71.7229 75.5524 71.553 75.7495 71.373 75.9259L71.8728 76.3616C72.0327 76.1749 72.1926 75.9881 72.3525 75.791Z" fill="#7C8BC5"/>
<path d="M55.9404 92.5677C56.5801 92.3291 57.2098 92.0801 57.8395 91.8207L54.961 84.6097C54.4312 84.8172 53.8815 85.0144 53.3418 85.2011L55.9404 92.5677Z" fill="#7C8BC5"/>
<path d="M58.0597 88.9265C58.5894 88.7086 59.1091 88.4699 59.6289 88.2209L57.42 83.5209C56.9503 83.7491 56.4805 83.9566 56.0107 84.1641L58.0597 88.9265Z" fill="#7C8BC5"/>
<path d="M49.7841 86.1973C47.1454 86.7991 44.3969 87.1311 41.5783 87.1311C34.3021 87.1311 27.5057 85.0041 21.7287 81.3001L17.7607 87.9923C24.6871 92.4226 32.8429 94.9853 41.5783 94.9853C45.1065 94.9853 48.5447 94.5599 51.843 93.7714L49.7841 86.1973Z" fill="#7C8BC5"/>
<path d="M73.7617 77.1084L73.3919 76.766C73.2319 76.9424 73.072 77.1084 72.9121 77.2848L73.3219 77.6375C73.4618 77.4611 73.6117 77.2848 73.7617 77.1084Z" fill="#7C8BC5"/>
<path d="M73.6315 74.1412C73.7914 73.9337 73.9413 73.7158 74.0912 73.5083L73.7214 73.2074C73.5515 73.4149 73.3816 73.6328 73.2217 73.8403L73.6315 74.1412Z" fill="#7C8BC5"/>
<path d="M73.1619 81.1237L72.5423 80.4701C72.3823 80.6153 72.2224 80.7606 72.0625 80.9059L72.7222 81.5803C72.8721 81.4246 73.012 81.2794 73.1619 81.1237Z" fill="#7C8BC5"/>
<path d="M72.5327 72.2218L72.1029 71.869C71.913 72.0973 71.7231 72.3255 71.5332 72.5538L72.0329 72.9273C72.2028 72.699 72.3728 72.4604 72.5327 72.2218Z" fill="#7C8BC5"/>
<path d="M75.6802 71.0803L75.4204 70.8832C75.3004 71.0596 75.1805 71.2256 75.0605 71.4019L75.3604 71.5991C75.4603 71.4331 75.5703 71.2567 75.6802 71.0803Z" fill="#7C8BC5"/>
<path d="M74.3916 78.5816L74.9813 79.09C75.1112 78.9344 75.2412 78.7684 75.3711 78.6024L74.8314 78.1044C74.6815 78.26 74.5415 78.4156 74.3916 78.5816Z" fill="#7C8BC5"/>
<path d="M75.1604 75.2924C75.3004 75.1057 75.4303 74.9085 75.5702 74.7114L75.3004 74.4935C75.1504 74.6803 75.0005 74.867 74.8506 75.0538L75.1604 75.2924Z" fill="#7C8BC5"/>
<path d="M73.7313 69.6693C73.5914 69.8768 73.4614 70.074 73.3115 70.2815L73.6514 70.4994C73.7813 70.2918 73.9012 70.0947 74.0212 69.8872L73.7313 69.6693Z" fill="#7C8BC5"/>
<path d="M46.9259 53.38C45.5566 54.8014 43.6676 55.6833 41.5686 55.6833C37.3908 55.6833 34.0026 52.1661 34.0026 47.8291C34.0026 43.4922 37.3908 39.9749 41.5686 39.9749C43.6576 39.9749 45.5566 40.8568 46.9259 42.2783L52.2831 36.717C49.5445 33.8742 45.7565 32.1104 41.5786 32.1104C33.213 32.1104 26.4365 39.1449 26.4365 47.8291C26.4365 56.5134 33.213 63.5479 41.5786 63.5479C45.7565 63.5479 49.5445 61.7841 52.2831 58.9412L46.9259 53.38Z" fill="#232653"/>
<path d="M110.303 53.3799C108.934 54.8013 107.045 55.6832 104.946 55.6832C100.768 55.6832 97.3795 52.1659 97.3795 47.829C97.3795 43.4921 100.768 39.9748 104.946 39.9748C107.035 39.9748 108.934 40.8567 110.303 42.2781L115.66 36.7169C112.921 33.8741 109.133 32.1102 104.956 32.1102C96.5899 32.1102 89.8135 39.1448 89.8135 47.829C89.8135 56.5132 96.5899 63.5478 104.956 63.5478C109.133 63.5478 112.921 61.784 115.66 58.9411L110.303 53.3799Z" fill="#232653"/>
<path d="M63.3473 33.6766H55.7812V61.9704H63.3473V33.6766Z" fill="#232653"/>
<path d="M87.8943 33.6766H67.6748V41.5412H78.3393L74.0015 44.1143V61.9704H81.5676V41.5412H87.8943V33.6766Z" fill="#232653"/>
<path d="M26.4962 65.7278C26.2264 65.5202 25.9665 65.3024 25.7066 65.0741L24.957 65.8834C25.2069 66.1428 25.4568 66.3918 25.7166 66.6408L26.4962 65.7278Z" fill="#4D4193"/>
<path d="M24.0879 63.5385L23.4482 64.1091C23.6681 64.3996 23.898 64.6797 24.1379 64.9599L24.8475 64.2855C24.5877 64.0469 24.3378 63.7978 24.0879 63.5385Z" fill="#4D4193"/>
<path d="M27.2064 68.7782C26.8965 68.5914 26.5867 68.3943 26.2868 68.1971L25.6172 69.0791C25.917 69.3281 26.2169 69.5667 26.5167 69.795L27.2064 68.7782Z" fill="#4D4193"/>
<path d="M21.5289 63.8707C21.319 63.6217 21.1191 63.3623 20.9192 63.1029L20.6094 63.3312C20.7893 63.6113 20.9692 63.8914 21.1591 64.1612L21.5289 63.8707Z" fill="#4D4193"/>
<path d="M25.107 67.3571C24.8171 67.1289 24.5273 66.9006 24.2474 66.662L23.6777 67.2845C23.9476 67.5646 24.2175 67.8344 24.4873 68.0938L25.107 67.3571Z" fill="#4D4193"/>
<path d="M22.7684 66.2778L23.2882 65.7797C23.0183 65.5204 22.7585 65.2506 22.4986 64.9808L22.0488 65.3855C22.2787 65.6967 22.5186 65.9873 22.7684 66.2778Z" fill="#4D4193"/>
<path d="M54.1625 67.4608C50.5544 69.9509 46.2266 71.4139 41.5691 71.4139C40.1698 71.4139 38.7905 71.279 37.4612 71.03L36.002 78.7389C37.811 79.0917 39.67 79.2784 41.5691 79.2784C47.7758 79.2784 53.5528 77.3382 58.3603 74.0077L54.1625 67.4608Z" fill="#4D4193"/>
<path d="M17.8411 65.4063L17.4014 65.7383C17.5913 66.0392 17.7912 66.3297 17.9911 66.6202L18.4708 66.2467C18.2609 65.9666 18.051 65.6968 17.8411 65.4063Z" fill="#4D4193"/>
<path d="M35.2725 70.4901L33.1836 77.9916C33.6933 78.1576 34.2131 78.3236 34.7428 78.4584C34.9327 78.4999 35.1226 78.5518 35.3125 78.5933L36.8317 70.8948C36.302 70.7702 35.7822 70.6354 35.2725 70.4901Z" fill="#4D4193"/>
<path d="M19.6098 67.5844L19.0801 68.0616C19.3399 68.3936 19.6098 68.7153 19.8897 69.0369L20.4694 68.487C20.1695 68.1965 19.8797 67.8956 19.6098 67.5844Z" fill="#4D4193"/>
<path d="M26.7666 67.5644C27.0365 67.7927 27.3163 68.0002 27.5962 68.2181L28.3758 67.0664C28.0959 66.89 27.826 66.7136 27.5562 66.5165L26.7666 67.5644Z" fill="#4D4193"/>
<path d="M28.7359 71.2471L29.4455 69.9294C29.0657 69.7634 28.6959 69.587 28.3261 69.4003L27.6064 70.5623C27.9763 70.8009 28.3561 71.0292 28.7359 71.2471Z" fill="#4D4193"/>
<path d="M19.9998 65.0634C19.7899 64.8041 19.58 64.5343 19.3702 64.2645L19.0703 64.4928C19.2602 64.7833 19.4501 65.0634 19.64 65.3436L19.9998 65.0634Z" fill="#4D4193"/>
<path d="M23.2081 62.5632C22.9982 62.3246 22.7983 62.0755 22.6084 61.8265L22.1387 62.1793C22.3086 62.4594 22.4785 62.7292 22.6584 62.9886L23.2081 62.5632Z" fill="#4D4193"/>
<path d="M30.1146 74.8791C29.5949 74.682 29.0851 74.4641 28.5754 74.2255L27.8857 75.6365C28.4055 75.927 28.9252 76.2176 29.4649 76.4769L30.1146 74.8791Z" fill="#4D4193"/>
<path d="M32.8933 75.7712C32.2937 75.6156 31.704 75.4392 31.1143 75.2421L30.4746 76.9436C31.0843 77.2134 31.694 77.4624 32.3236 77.6907L32.8933 75.7712Z" fill="#4D4193"/>
<path d="M30.9539 72.8038C30.4642 72.6482 29.9844 72.4718 29.5247 72.285L28.875 73.6131C29.3548 73.8725 29.8345 74.1111 30.3342 74.3394L30.9539 72.8038Z" fill="#4D4193"/>
<path d="M34.5223 70.2513C34.0725 70.0957 33.6227 69.9297 33.183 69.7533L31.2939 74.7646C31.8537 74.9929 32.4234 75.2004 33.0031 75.3975L34.5223 70.2513Z" fill="#4D4193"/>
<path d="M28.6152 68.9236C28.9551 69.1415 29.2949 69.349 29.6447 69.5462L30.3044 68.3115C29.9845 68.1247 29.6647 67.9172 29.3549 67.7201L28.6152 68.9236Z" fill="#4D4193"/>
<path d="M21.8792 67.1285C21.5994 66.8484 21.3195 66.5682 21.0597 66.2777L20.6299 66.6616C20.8798 66.9729 21.1396 67.2841 21.3995 67.585L21.8792 67.1285Z" fill="#4D4193"/>
<path d="M29.7549 71.7971C30.1947 72.015 30.6544 72.2225 31.1042 72.4196L32.3435 69.3796C31.9637 69.2032 31.5839 69.0165 31.2141 68.809L29.7549 71.7971Z" fill="#4D4193"/>
<path d="M24.9071 72.1706C24.7371 72.0565 24.5572 71.9424 24.3873 71.8282C24.2074 71.7037 24.0275 71.5585 23.8476 71.434L23.168 72.3366C23.5178 72.6271 23.8676 72.9176 24.2174 73.1978L24.9071 72.1706Z" fill="#4D4193"/>
<path d="M23.8279 68.8614C23.5181 68.6124 23.2182 68.353 22.9184 68.0936L22.3887 68.6746C22.6685 68.9652 22.9584 69.2557 23.2582 69.5358L23.8279 68.8614Z" fill="#4D4193"/>
<path d="M28.4457 71.7972C28.0359 71.6001 27.6361 71.4029 27.2363 71.1747L26.5967 72.2122C26.9965 72.482 27.3963 72.7414 27.8061 72.9904L28.4457 71.7972Z" fill="#4D4193"/>
<path d="M22.5291 70.3963C22.1993 70.1266 21.8795 69.8464 21.5696 69.5663L20.96 70.2303C21.2598 70.5519 21.5696 70.8528 21.8895 71.1641L22.5291 70.3963Z" fill="#4D4193"/>
<path d="M27.4365 73.6754C26.9967 73.4471 26.5669 73.2085 26.1371 72.9491L25.4375 74.0904C25.8673 74.3913 26.3071 74.6818 26.7468 74.9619L27.4365 73.6754Z" fill="#4D4193"/>
<path d="M25.4375 71.3821L26.0572 70.4691C25.7273 70.2616 25.3975 70.0333 25.0677 69.8051L24.458 70.604C24.6179 70.7388 24.7778 70.8737 24.9477 71.0086C25.1077 71.1331 25.2776 71.2576 25.4375 71.3821Z" fill="#4D4193"/>
<path d="M38.2598 21.8798L38.1798 21.2469C37.7801 21.2884 37.3803 21.3403 36.9805 21.4026L37.0904 22.1496C37.4902 22.0562 37.87 21.9629 38.2598 21.8798Z" fill="#2A4B9B"/>
<path d="M38.5299 24.0383L38.4199 23.1771C38.0401 23.2186 37.6603 23.2705 37.2705 23.3224L37.4204 24.2977C37.7902 24.2043 38.1601 24.1213 38.5299 24.0383Z" fill="#2A4B9B"/>
<path d="M22.6582 23.364L23.8876 24.9203C24.3273 24.5053 24.7771 24.111 25.2369 23.7375L24.2074 22.2123C23.6777 22.5754 23.1679 22.9593 22.6582 23.364Z" fill="#2A4B9B"/>
<path d="M28.4457 24.0174L27.726 22.6893C27.2763 22.9591 26.8265 23.2392 26.3867 23.5297L27.2763 24.9201C27.6461 24.6088 28.0359 24.3079 28.4457 24.0174Z" fill="#2A4B9B"/>
<path d="M36.3711 17.3564L36.501 18.1761C36.9208 18.0827 37.3506 17.9893 37.7804 17.9167L37.6904 17.1801C37.2506 17.2319 36.8109 17.2838 36.3711 17.3564Z" fill="#2A4B9B"/>
<path d="M29.7447 20.6973L29.2049 19.4315C28.7352 19.639 28.2654 19.8569 27.8057 20.0852L28.4753 21.4236C28.8851 21.1746 29.3149 20.9256 29.7447 20.6973Z" fill="#2A4B9B"/>
<path d="M27.4053 22.1087L26.6357 20.6976C26.136 20.9778 25.6362 21.2787 25.1465 21.5899L26.076 23.0529C26.5158 22.7312 26.9555 22.4096 27.4053 22.1087Z" fill="#2A4B9B"/>
<path d="M39.4395 17.0559L39.4694 17.6888C39.8492 17.6473 40.239 17.6162 40.6188 17.5851L40.5989 17.0248C40.219 17.0248 39.8293 17.0352 39.4395 17.0559Z" fill="#2A4B9B"/>
<path d="M40.699 19.5459L40.689 19.162C40.3092 19.162 39.9294 19.1724 39.5596 19.1931L39.5896 19.66C39.9494 19.6081 40.3192 19.577 40.699 19.5459Z" fill="#2A4B9B"/>
<path d="M21.9391 23.9344C21.5893 24.2353 21.2394 24.5362 20.8996 24.8475C20.7197 25.0135 20.5498 25.1899 20.3799 25.3663L25.7071 30.9482C26.0669 30.5851 26.4267 30.2427 26.8065 29.9003L21.9391 23.9344Z" fill="#2A4B9B"/>
<path d="M40.8492 23.6753L40.8292 23.0735C40.4694 23.0631 40.1196 23.0735 39.7598 23.0839L39.7997 23.8102C40.1496 23.7583 40.4994 23.7168 40.8492 23.6753Z" fill="#2A4B9B"/>
<path d="M38.0205 19.8989L37.9505 19.3075C37.5307 19.349 37.111 19.4112 36.7012 19.4735L36.8011 20.1687C37.2009 20.0649 37.6107 19.9819 38.0205 19.8989Z" fill="#2A4B9B"/>
<path d="M40.7686 21.5177L40.7586 21.1234C40.3888 21.1234 40.029 21.1234 39.6592 21.1442L39.6892 21.6422C40.049 21.5903 40.4088 21.5488 40.7686 21.5177Z" fill="#2A4B9B"/>
<path d="M35.0217 18.56L34.8218 17.6366C34.382 17.73 33.9522 17.8337 33.5225 17.9375L33.7823 18.9439C34.1921 18.809 34.6119 18.6845 35.0217 18.56Z" fill="#2A4B9B"/>
<path d="M35.8811 22.5241L35.6912 21.663C35.3114 21.746 34.9316 21.8393 34.5518 21.9535L34.8016 22.908C35.1614 22.7628 35.5213 22.6383 35.8811 22.5241Z" fill="#2A4B9B"/>
<path d="M36.3313 24.6198L36.1014 23.5511C35.7416 23.6238 35.3918 23.7172 35.042 23.8105L35.3418 24.9622C35.6617 24.8377 36.0015 24.7236 36.3313 24.6198Z" fill="#2A4B9B"/>
<path d="M28.6947 24.4847C28.2849 24.7338 27.8851 25.0035 27.4854 25.2733L29.2344 28.0228C29.5743 27.7945 29.9141 27.5766 30.2639 27.3691L28.6947 24.4847Z" fill="#2A4B9B"/>
<path d="M30.5738 22.648L30.074 21.4652C29.6443 21.6623 29.2245 21.8699 28.8047 22.0877L29.4244 23.3432C29.8042 23.1045 30.184 22.8763 30.5738 22.648Z" fill="#2A4B9B"/>
<path d="M31.6032 25.0653C31.2434 25.2313 30.8935 25.4077 30.5537 25.5945L31.1834 26.8603C31.5032 26.6839 31.833 26.5179 32.1529 26.3622L31.6032 25.0653Z" fill="#2A4B9B"/>
<path d="M19.8797 25.8954C14.5625 31.5604 11.2842 39.3005 11.2842 47.8291H18.8602C18.8602 41.4586 21.299 35.6691 25.2569 31.4256L19.8797 25.8954Z" fill="#2A4B9B"/>
<path d="M25.5065 24.142C25.0367 24.4844 24.567 24.8371 24.1172 25.221L27.4055 29.4023C27.7553 29.1118 28.1151 28.8317 28.4749 28.5619L25.5065 24.142Z" fill="#2A4B9B"/>
<path d="M31.9436 19.6495C32.0435 19.608 32.1435 19.5665 32.2434 19.5353L31.8936 18.4252C31.4638 18.5601 31.034 18.7157 30.6143 18.8713L31.054 20.0541C31.3439 19.9089 31.6437 19.774 31.9436 19.6495Z" fill="#2A4B9B"/>
<path d="M31.3842 24.5672L30.8545 23.3221C30.4647 23.5089 30.0849 23.6957 29.7051 23.9032L30.3547 25.2208C30.6946 24.9926 31.0344 24.7747 31.3842 24.5672Z" fill="#2A4B9B"/>
<path d="M32.8632 21.4964L32.5434 20.5004C32.4535 20.5315 32.3635 20.5522 32.2736 20.5834C31.9737 20.6871 31.6739 20.8013 31.374 20.9258L31.7738 22.0048C32.1336 21.8284 32.4934 21.6624 32.8632 21.4964Z" fill="#2A4B9B"/>
<path d="M34.1127 25.4598L33.7229 24.2147C33.3931 24.3289 33.0632 24.443 32.7334 24.5779L33.2231 25.8852C33.513 25.7295 33.8128 25.5843 34.1127 25.4598Z" fill="#2A4B9B"/>
<path d="M33.4825 23.4572L33.1427 22.3885C32.7829 22.5131 32.4231 22.6479 32.0732 22.7932L32.503 23.9449C32.8228 23.7685 33.1527 23.6129 33.4825 23.4572Z" fill="#2A4B9B"/>
<path d="M35.4515 20.5316L35.2816 19.743C34.8719 19.8364 34.4721 19.9298 34.0723 20.0439L34.3021 20.9258C34.672 20.791 35.0617 20.6561 35.4515 20.5316Z" fill="#2A4B9B"/>
</svg>
